<svg xmlns="http://www.w3.org/2000/svg" width="65" height="65" viewBox="0 0 65 65">
  <g id="그룹_9" data-name="그룹 9" transform="translate(-4308 -2807)">
    <path id="패스_7" data-name="패스 7" d="M0,38.727S7.769,51.261,15.634,51.956c9.979.881,9.646-6.615,9.646-6.615L16.3,30.79S10.647,14.033,25.282,5.8,56.88.511,56.88.511s4.989,1.175,5.988,7.348c0,0-4.325-8.819-20.291-4.409,0,0-1.332-.294-1.332,2.94s6.986,13.671,8.317,19.623,7.65,9.774-11.311,23c0,0,3.326-6.173,3.659-10.584s-7.319-12.419-7.319-12.419-.4,7.029,3,11.831S31.267,51.662,26.611,53.425,13.305,54.6,13.305,54.6L3.992,48.428Z" transform="translate(4309 2813.652)" fill="#6aae27" stroke="rgba(0,0,0,0)" stroke-width="1"/>
    <rect id="사각형_107" data-name="사각형 107" width="65" height="65" transform="translate(4308 2807)" fill="none"/>
  </g>
</svg>
