<svg width="200" height="37" viewBox="0 0 200 37" fill="none" xmlns="http://www.w3.org/2000/svg">
<path d="M199.831 18.775L193.966 18.6909V23.3423C193.966 29.3347 193.07 33.7338 192.644 35.035C192.357 35.4112 191.715 35.6236 191.322 35.4953C191.072 34.4464 190.57 31.1802 190.57 25.772V4.82082C190.57 3.94011 188.459 2.13886 187.673 1.84676C187.458 1.76267 188.138 0.842131 188.353 0.842131C189.962 0.842131 194.181 1.97068 194.075 2.85582C194.003 3.44001 193.966 4.15697 193.966 4.90934V16.8941L198.399 14.8406C198.792 14.6724 200.545 18.7794 199.831 18.7794M187.673 21.0365C188.281 22.0412 186.635 26.3164 186.027 25.3118C185.169 23.8867 182.809 19.6956 180.698 16.8897C177.873 21.5012 174.368 25.2277 171.222 27.1971C170.829 27.1573 170.364 26.4846 170.364 26.0686C174.262 22.0013 178.662 14.8804 180.52 8.3835C180.63 8.00732 179.304 6.87434 178.734 6.45833C178.556 6.32998 179.342 5.61745 179.557 5.61745C180.63 5.61745 183.56 7.04252 184.278 7.63114C184.671 7.96749 184.709 8.1755 184.527 8.71986C183.742 11.1097 182.703 13.3713 181.525 15.469C184.172 17.6066 187.103 20.0762 187.677 21.041M168.721 19.1512L162.822 19.0229V23.3379C162.822 29.3303 161.999 33.7294 161.534 35.0306C161.247 35.4068 160.605 35.6192 160.246 35.4908C159.959 34.442 159.495 31.1758 159.495 25.7676V4.82082C159.495 3.94011 157.383 2.22295 156.598 1.84676C156.42 1.76267 157.062 0.842131 157.278 0.842131C158.887 0.842131 162.999 1.97068 162.928 2.85582C162.894 3.44001 162.822 4.15697 162.822 4.90934V17.2703L167.29 15.261C167.72 15.053 169.473 19.1601 168.721 19.1601M149.554 21.2047C151.197 21.2047 152.413 19.8637 152.413 17.8102C152.413 15.7567 151.269 14.3715 149.554 14.3715C147.839 14.3715 146.695 15.7567 146.695 17.8102C146.695 19.8637 147.839 21.2047 149.554 21.2047ZM143.976 3.7321C143.938 3.56393 144.119 2.97974 144.331 3.01957C145.509 3.27183 146.691 3.5241 148.194 3.7321L151.839 4.19238C152.16 4.23221 153.557 6.49816 152.628 6.49816H147.122C146.193 6.49816 144.047 4.10829 143.976 3.7321ZM140.327 8.84377C140.293 8.71543 140.505 8.25958 140.614 8.29942C141.222 8.55168 143.405 8.63577 145.479 8.59151L152.919 8.50742C155.064 8.46759 155.71 7.20627 156.031 7.20627C156.39 7.20627 157.75 9.42797 157.75 10.4326C157.75 10.6008 157.606 10.7247 157.357 10.7247C156.998 10.7247 154.925 10.6008 153.282 10.6008L145.271 10.6406C143.987 10.6406 143.126 10.977 142.733 11.393C141.732 11.0566 140.482 9.29962 140.339 8.83492M158.101 25.98C154.883 27.6972 148.731 28.7063 144.512 29.3303C143.368 29.4985 142.688 29.7507 142.008 30.211C140.935 29.8746 139.36 28.0291 139.217 27.3166C139.251 27.1086 139.394 26.9006 139.504 26.7722C140.686 26.7722 142.401 26.8121 144.474 26.6881C145.762 26.6041 146.978 26.52 148.085 26.3961L147.87 22.7935C145.154 22.2492 143.47 20.3638 143.47 17.766C143.47 14.9202 145.581 12.9906 148.904 12.7782C148.938 12.61 148.976 12.4861 148.976 12.3179C148.976 11.9816 148.904 11.6054 148.512 11.2691C148.512 10.4724 150.657 11.2691 150.657 11.6895C150.657 11.8577 150.479 12.3578 150.37 12.7782C153.622 13.0305 155.661 14.9601 155.661 17.766C155.661 20.3638 153.909 22.2492 151.223 22.7935L151.08 26.0641C154.475 25.6039 156.768 24.971 158.301 24.3868C158.622 24.2629 158.479 25.7676 158.09 25.98M117.44 5.57319L117.406 12.5702H125.737L125.953 5.57319H117.44ZM112.043 4.0242C112.009 3.81619 112.507 3.10366 112.757 3.10366C113.365 3.10366 115.51 3.18775 116.904 3.47984H124.842C125.843 3.47984 126.38 3.31166 126.772 2.89565C127.203 2.72747 129.99 3.232 129.922 3.77636L128.74 12.1984C129.242 12.7428 129.922 13.8315 129.922 14.4201C129.922 14.5883 129.779 14.7122 129.529 14.7122C129.171 14.7122 127.849 14.668 125.847 14.668H117.051C116.836 15.1283 116.552 15.5487 116.231 15.9691C115.91 16.3453 115.336 16.5135 114.909 16.3851C114.551 15.3805 114.267 13.4509 114.014 9.97233L113.693 5.61302C113.659 5.19701 112.655 4.27204 112.05 4.01977M131.852 33.7737C131.852 33.9419 131.746 34.0702 131.459 34.0702H127.777L116.836 34.11C113.799 34.11 113.191 32.893 113.191 30.5075V26.9448C113.191 26.3164 112.047 25.2277 111.404 25.0993C111.189 25.0595 111.903 24.0106 112.19 24.0106C113.444 24.0106 115.302 24.347 116.231 24.763C116.409 24.8471 116.696 24.971 116.624 25.4357C116.552 25.98 116.552 26.7767 116.552 27.4494V30.5518C116.552 31.8529 116.945 32.0211 117.912 32.0211L127.105 31.9813C129.035 31.9813 129.68 30.7244 129.93 30.7244C130.428 30.7244 131.86 32.8177 131.86 33.7825M135.319 20.2001C135.319 20.4081 135.176 20.5364 134.926 20.5364H123.592V22.9661C123.592 25.4357 122.803 27.5733 122.27 28.5381C121.983 28.9143 121.375 29.0824 120.982 28.9585C120.661 27.83 120.197 26.3164 120.197 23.5548V20.5364H112.579C111.291 20.5364 110.434 20.9569 110.041 21.3729C109.04 21.0365 107.001 19.1955 107.001 18.775C107.001 18.6068 107.178 18.1466 107.288 18.1908C107.896 18.4431 110.079 18.4829 112.152 18.4829L129.677 18.4431C131.894 18.4431 132.645 16.9738 132.929 16.9738C133.321 16.9738 135.323 19.1955 135.323 20.2001M85.4012 9.59614C85.4012 12.2781 86.9006 14.0794 89.1553 14.0794C91.4101 14.0794 93.1247 12.2781 93.1247 9.59614C93.1247 6.91418 91.5158 5.11292 89.1893 5.11292C86.8628 5.11292 85.3974 6.9186 85.3974 9.59614M82.002 9.72006C82.002 5.94937 84.5778 3.43558 88.5473 3.18332C88.5812 3.0594 88.619 2.93106 88.619 2.80714C88.619 2.43095 88.5473 2.01494 88.0827 1.63433C88.0827 0.797874 90.4772 1.63433 90.4772 2.0946C90.4772 2.26278 90.2997 2.76288 90.1902 3.18332C93.9821 3.51967 96.4861 6.03346 96.4861 9.72006C96.4861 13.6191 93.5893 16.1727 89.2611 16.1727C84.9329 16.1727 82.002 13.6147 82.002 9.72006ZM103.386 21.1649C103.386 21.3331 103.243 21.457 102.994 21.457H95.2322V23.4707C95.2322 29.1267 94.3749 33.5258 93.9103 34.8226C93.6233 35.1987 92.9812 35.3669 92.6262 35.2828C92.3392 34.2339 91.8369 30.9678 91.8369 25.8959V21.4526L86.3643 21.4924V22.7493C86.3643 28.3655 85.5069 32.7646 85.0764 34.0658C84.7893 34.442 84.1473 34.6101 83.7545 34.526C83.5052 33.4772 83.0029 30.211 83.0029 25.1834V21.4968H80.6424C79.3545 21.4968 78.4972 21.9173 78.1044 22.3333C77.1035 21.9969 75.0641 20.1558 75.0641 19.6956C75.0641 19.5672 75.2416 19.1114 75.3511 19.1512C75.9592 19.4035 78.1422 19.4433 80.2156 19.4433L97.74 19.3592C99.957 19.3592 100.709 17.8899 100.996 17.8899C101.388 17.8899 103.39 20.1514 103.39 21.1605M53.7515 7.91881C53.7515 10.2246 55.2169 11.8577 57.4339 11.8577C59.6509 11.8577 61.1163 10.2202 61.1163 7.91881C61.1163 5.61745 59.6509 4.06403 57.4339 4.06403C55.2169 4.06403 53.7515 5.65728 53.7515 7.91881ZM50.3562 8.08698C50.3562 4.77657 52.8224 2.3867 56.6483 2.0946C56.6823 1.88659 56.7579 1.71842 56.7579 1.51041C56.7579 1.13423 56.6483 0.758042 56.2216 0.377433C56.2216 -0.503279 58.6161 0.377433 58.6161 0.797874C58.6161 1.05014 58.3668 1.63433 58.2233 2.09903C62.0152 2.39112 64.5532 4.78099 64.5532 8.09141C64.5532 11.57 61.6564 14.0395 57.4377 14.0395C53.219 14.0395 50.3562 11.5656 50.3562 8.09141M67.3065 34.4464C67.3065 34.6544 67.163 34.7385 66.9137 34.7385H53.0037C50.6092 34.7385 49.7859 33.7737 49.7141 31.5962L49.6424 28.7904C49.6424 28.3743 48.7095 27.83 48.1014 27.5335C48.0674 27.3254 48.6037 26.6129 48.8908 26.6129C49.5706 26.6129 52.1086 26.7811 53.0377 27.1573H62.0832L62.1172 23.7628H53.0717C51.9613 23.7628 51.2475 24.0991 50.8547 24.5151C49.5668 24.3071 48.5282 22.3333 48.4942 22.0412C48.4602 21.8332 48.6377 21.4127 48.8152 21.457C49.9596 21.7092 51.3872 21.7092 53.4645 21.7092H60.867C61.8679 21.7092 62.4042 21.5809 62.797 21.1206C63.2275 21.0808 66.0866 21.457 65.9808 22.0013L65.0857 26.9448C65.7656 27.529 66.1961 28.5381 66.1961 28.7904C66.1961 28.9984 66.0866 29.1665 65.9091 29.1665C65.588 29.1665 63.5486 29.1223 61.9057 29.1223H53.0377V30.9678C53.0377 32.3929 53.3965 32.685 55.0054 32.685H62.8347C65.0517 32.685 65.3728 31.5962 65.6258 31.5962C66.1243 31.5962 67.3065 33.5657 67.3065 34.4464ZM71.3817 18.2307C71.3817 18.3988 71.2381 18.5228 70.9889 18.5228H65.9468L48.6755 18.567C47.4216 18.567 46.568 18.983 46.1715 19.3636C45.1329 19.0273 43.2747 17.226 43.1311 16.7658C43.0972 16.6374 43.3087 16.1771 43.4182 16.217C44.0262 16.4692 46.2092 16.5135 48.2827 16.5135L65.7693 16.4294C67.9523 16.4294 68.7001 14.9645 69.0212 14.9645C69.414 14.9645 71.3817 17.226 71.3817 18.2307ZM31.9027 18.1466C31.9027 18.5228 31.6534 18.5228 30.7923 18.8148C30.4335 18.9432 30.256 19.6115 29.969 20.6604C29.3609 22.8821 27.397 26.4403 23.318 26.4403C19.2391 26.4403 17.0976 22.3731 16.9541 22.1651C16.7388 21.8287 16.4178 21.5366 16.1307 21.5366C15.9532 21.5366 15.8097 21.6207 15.704 21.7048C14.2386 22.8776 12.6296 24.2186 12.6296 27.2768C12.6296 29.2905 14.0573 31.5918 16.4895 31.5918C18.563 31.5918 19.9227 29.286 20.3532 27.6928C20.4967 27.1484 20.459 26.9404 20.7082 26.9404C21.0293 26.9404 21.1388 27.7769 21.5656 27.7769C21.9244 27.7769 21.8148 27.5689 22.2794 27.5689C22.7099 27.5689 22.8157 28.2416 23.1745 28.2416C23.6768 28.2416 24.3566 27.737 24.6777 27.737C24.7872 27.737 24.9647 27.737 24.9647 27.861C24.9647 28.069 24.6437 28.2814 24.3566 28.5735C23.7486 29.2019 23.284 29.5781 22.8195 30.5031C21.1728 33.7692 19.2806 34.3579 18.3137 34.6942C17.9587 34.8181 17.5999 35.0306 17.4564 35.4068C16.9201 36.8318 16.5991 37 16.4556 37C16.278 37 16.2063 36.7477 16.1685 36.2034C16.1307 35.6192 15.8475 34.9465 14.8806 34.7341C12.4144 34.1897 9.37404 31.2555 9.37404 26.6483C9.37404 22.5014 12.0556 20.8684 13.4152 19.2707C13.5927 19.0627 13.7362 18.8104 13.7362 18.4342V18.3059C13.7362 18.0979 13.6985 17.8456 13.4832 17.5137C12.1236 15.5 11.0887 14.159 9.22674 14.159C7.18727 14.159 5.40084 16.1285 5.40084 18.9786C5.40084 22.0368 6.68873 23.0856 7.97662 23.4618C8.4034 23.5857 8.54692 23.63 8.54692 23.7982C8.54692 24.1345 8.25988 24.0504 8.25988 24.5505C8.25988 24.9267 8.50915 24.8869 8.50915 25.4711C8.50915 25.8915 8.18812 26.0154 8.18812 26.6439C8.18812 27.1484 8.4034 27.3122 8.4034 27.6087C8.4034 27.9849 8.58091 27.945 8.58091 28.7372C8.58091 28.9452 8.65267 29.1134 8.50915 29.1134C8.36563 29.1134 8.18812 28.8213 7.97284 28.4451C7.47053 27.5644 6.93422 27.0201 6.54143 26.6837C3.42934 24.046 3.32359 22.8688 2.53801 21.0675C2.3605 20.6515 2.28875 19.939 1.92995 19.7265C0.785576 19.0538 0 18.8458 0 17.7571C0 17.2526 0.502315 17.7571 1.28789 17.7571C1.71845 17.7571 2.21699 17.8412 2.47003 16.7967C3.00634 14.575 5.25732 11.0124 9.19275 11.0124C13.3775 11.0124 15.4509 15.0796 15.5944 15.2876C15.8815 15.7478 16.1307 15.916 16.4178 15.916C16.5953 15.916 16.7388 15.916 17.0598 15.5797C19.7074 12.8136 19.9189 11.601 19.9189 10.0077C19.9189 7.99404 18.5592 5.64843 16.127 5.64843C13.6947 5.64843 12.5503 7.90995 12.2293 9.58729C12.1198 10.1317 12.0518 10.4237 11.8365 10.4237C11.5155 10.4237 11.5155 9.91922 11.1567 9.91922C10.5826 9.91922 10.5146 10.2113 10.2276 10.2113C9.83481 10.2113 9.83481 9.37486 9.26073 9.37486C9.11721 9.37486 8.79619 9.58286 8.58091 9.58286C8.0446 9.58286 8.01061 9.70678 7.75756 9.70678C7.47053 9.70678 7.18727 9.53861 7.18727 9.29077C7.18727 9.04293 7.36478 8.87033 7.93885 8.5384C8.69043 8.07813 9.37026 7.74178 9.72528 6.82124C10.8357 3.93126 13.2641 3.00629 14.197 2.59028C14.552 2.4221 14.7333 2.25392 14.9108 1.87774C15.6624 0.284494 15.9835 0.116318 16.1987 0.116318C16.414 0.116318 16.3762 0.536758 16.4858 1.04129C16.5953 1.62548 16.5953 2.09017 17.4149 2.34244C19.7414 3.05497 23.1707 5.56877 23.1707 10.1759C23.1707 14.783 19.3108 17.6774 19.1295 17.8456C18.699 18.2218 18.5555 18.5139 18.5555 18.806C18.5555 19.014 18.665 19.2663 18.7707 19.5185C19.7036 21.7004 21.3087 23.121 23.1707 23.121C25.3877 23.121 27.1062 20.6913 27.1062 18.1776C27.1062 15.6638 25.6785 14.1546 24.4246 13.6943C23.9601 13.5262 23.7448 13.5262 23.7448 13.2341C23.7448 12.8977 24.0658 13.0261 24.0658 12.5215C24.0658 12.1453 23.9223 12.2294 23.9223 11.6408C23.9223 11.2204 24.3529 11.0965 24.3529 10.468C24.3529 9.96347 24.1376 9.79972 24.1376 9.50763C24.1376 9.13144 24.0281 9.17128 24.0281 8.37465C24.0281 8.16664 23.9563 7.99847 24.0998 7.99847C24.2773 7.99847 24.4548 8.29056 24.6701 8.66675C25.1686 9.54746 25.5652 10.2157 25.958 10.5123C28.7831 12.61 29.3911 13.951 30.037 15.8364C30.1805 16.2568 30.324 16.9649 30.7508 17.2614C31.1058 17.5137 31.8951 17.8102 31.8951 18.1421" fill="#141313"/>
</svg>
