<svg width="241" height="48" viewBox="0 0 241 48" fill="none" xmlns="http://www.w3.org/2000/svg">
<path d="M240.796 24.0463L233.728 23.9386V29.8959C233.728 37.5707 232.65 43.205 232.136 44.8714C231.79 45.3532 231.016 45.6253 230.543 45.4609C230.242 44.1175 229.637 39.9344 229.637 33.0078V6.17432C229.637 5.04634 227.093 2.73936 226.146 2.36526C225.887 2.25756 226.706 1.07857 226.966 1.07857C228.904 1.07857 233.988 2.52397 233.86 3.65762C233.774 4.40583 233.728 5.32408 233.728 6.28768V21.6373L239.071 19.0072C239.545 18.7918 241.656 24.052 240.796 24.052M226.146 26.9428C226.879 28.2295 224.895 33.705 224.162 32.4183C223.129 30.5931 220.285 25.2253 217.741 21.6316C214.336 27.5379 210.113 32.3106 206.322 34.833C205.849 34.7819 205.289 33.9204 205.289 33.3876C209.986 28.1784 215.288 19.0582 217.527 10.7373C217.659 10.2555 216.061 8.80438 215.374 8.27157C215.16 8.10719 216.107 7.1946 216.366 7.1946C217.659 7.1946 221.19 9.01978 222.055 9.77365C222.528 10.2044 222.574 10.4708 222.355 11.168C221.409 14.2289 220.157 17.1254 218.737 19.8121C221.928 22.5499 225.459 25.7128 226.151 26.9484M203.309 24.5281L196.2 24.3637V29.8903C196.2 37.5651 195.208 43.1993 194.649 44.8658C194.303 45.3476 193.529 45.6196 193.097 45.4553C192.751 44.1119 192.191 39.9287 192.191 33.0021V6.17432C192.191 5.04634 189.647 2.84706 188.7 2.36526C188.486 2.25756 189.26 1.07857 189.52 1.07857C191.458 1.07857 196.414 2.52397 196.328 3.65762C196.287 4.40583 196.2 5.32408 196.2 6.28768V22.1191L201.584 19.5457C202.103 19.2793 204.215 24.5394 203.309 24.5394M180.213 27.1582C182.192 27.1582 183.658 25.4407 183.658 22.8106C183.658 20.1806 182.279 18.4064 180.213 18.4064C178.146 18.4064 176.767 20.1806 176.767 22.8106C176.767 25.4407 178.146 27.1582 180.213 27.1582ZM173.491 4.77993C173.445 4.56454 173.664 3.81633 173.919 3.86734C175.338 4.19043 176.763 4.51352 178.574 4.77993L182.966 5.36943C183.353 5.42044 185.037 8.32258 183.917 8.32258H177.282C176.162 8.32258 173.577 5.26173 173.491 4.77993ZM169.094 11.3268C169.053 11.1624 169.308 10.5785 169.44 10.6296C170.173 10.9526 172.803 11.0603 175.302 11.0037L184.268 10.896C186.853 10.845 187.631 9.2295 188.018 9.2295C188.45 9.2295 190.088 12.075 190.088 13.3617C190.088 13.577 189.915 13.7358 189.615 13.7358C189.183 13.7358 186.684 13.577 184.704 13.577L175.052 13.6281C173.504 13.6281 172.467 14.0588 171.993 14.5917C170.787 14.1609 169.281 11.9106 169.108 11.3154M190.512 33.2742C186.634 35.4735 179.22 36.7658 174.137 37.5651C172.758 37.7804 171.939 38.1035 171.12 38.693C169.827 38.2622 167.929 35.8986 167.756 34.986C167.797 34.7196 167.97 34.4532 168.102 34.2888C169.527 34.2888 171.593 34.3398 174.091 34.1811C175.643 34.0734 177.109 33.9657 178.442 33.807L178.183 29.1931C174.911 28.4959 172.881 26.0812 172.881 22.7539C172.881 19.1093 175.425 16.6379 179.43 16.3658C179.471 16.1504 179.516 15.9917 179.516 15.7763C179.516 15.3455 179.43 14.8637 178.957 14.433C178.957 13.4127 181.542 14.433 181.542 14.9714C181.542 15.1868 181.328 15.8273 181.196 16.3658C185.114 16.6889 187.572 19.1603 187.572 22.7539C187.572 26.0812 185.46 28.4959 182.224 29.1931L182.051 33.3819C186.143 32.7924 188.905 31.9818 190.753 31.2336C191.14 31.0749 190.967 33.0021 190.498 33.2742M141.515 7.13792L141.474 16.0994H151.514L151.773 7.13792H141.515ZM135.012 5.15403C134.971 4.88763 135.571 3.97504 135.872 3.97504C136.604 3.97504 139.189 4.08274 140.869 4.45684H150.435C151.641 4.45684 152.287 4.24145 152.761 3.70863C153.279 3.49324 156.638 4.13942 156.556 4.83661L155.132 15.6233C155.737 16.3205 156.556 17.7149 156.556 18.4687C156.556 18.6841 156.383 18.8428 156.083 18.8428C155.651 18.8428 154.058 18.7862 151.646 18.7862H141.046C140.787 19.3757 140.446 19.9141 140.059 20.4526C139.672 20.9344 138.98 21.1498 138.466 20.9854C138.033 19.6987 137.692 17.2274 137.387 12.7722L137 7.18893C136.959 6.65612 135.749 5.47146 135.021 5.14837M158.882 43.256C158.882 43.4714 158.754 43.6357 158.409 43.6357H153.971L140.787 43.6868C137.128 43.6868 136.395 42.128 136.395 39.0728V34.5099C136.395 33.705 135.016 32.3106 134.242 32.1462C133.983 32.0952 134.843 30.7518 135.189 30.7518C136.7 30.7518 138.939 31.1826 140.059 31.7154C140.273 31.8231 140.618 31.9818 140.532 32.577C140.446 33.2742 140.446 34.2945 140.446 35.1561V39.1295C140.446 40.796 140.919 41.0113 142.084 41.0113L153.161 40.9603C155.487 40.9603 156.265 39.3506 156.565 39.3506C157.166 39.3506 158.891 42.0316 158.891 43.2673M163.06 25.8715C163.06 26.1379 162.887 26.3023 162.586 26.3023H148.929V29.4141C148.929 32.577 147.978 35.3148 147.336 36.5504C146.99 37.0322 146.257 37.2476 145.784 37.0889C145.397 35.6435 144.837 33.705 144.837 30.168V26.3023H135.658C134.106 26.3023 133.073 26.8407 132.6 27.3736C131.393 26.9428 128.936 24.5848 128.936 24.0463C128.936 23.8309 129.15 23.2414 129.282 23.2981C130.014 23.6212 132.645 23.6722 135.144 23.6722L156.26 23.6212C158.932 23.6212 159.838 21.7393 160.179 21.7393C160.652 21.7393 163.064 24.5848 163.064 25.8715M102.908 12.2904C102.908 15.7253 104.715 18.0323 107.432 18.0323C110.149 18.0323 112.215 15.7253 112.215 12.2904C112.215 8.8554 110.277 6.54842 107.473 6.54842C104.67 6.54842 102.904 8.86107 102.904 12.2904M98.8125 12.4491C98.8125 7.61972 101.916 4.40016 106.699 4.07707C106.74 3.91836 106.786 3.75398 106.786 3.59527C106.786 3.11347 106.699 2.58065 106.14 2.09318C106.14 1.02188 109.025 2.09318 109.025 2.68268C109.025 2.89807 108.811 3.53859 108.679 4.07707C113.248 4.50785 116.266 7.72742 116.266 12.4491C116.266 17.4428 112.775 20.7134 107.56 20.7134C102.344 20.7134 98.8125 17.4371 98.8125 12.4491ZM124.581 27.1071C124.581 27.3225 124.408 27.4812 124.107 27.4812H114.755V30.0603C114.755 37.3043 113.722 42.9386 113.162 44.5993C112.816 45.0811 112.042 45.2965 111.615 45.1888C111.269 43.8455 110.663 39.6623 110.663 33.1665V27.4756L104.069 27.5266V29.1364C104.069 36.3294 103.036 41.9636 102.517 43.6301C102.171 44.1119 101.397 44.3273 100.924 44.2196C100.624 42.8762 100.018 38.693 100.018 32.2539V27.5323H97.1741C95.6222 27.5323 94.5891 28.0707 94.1158 28.6036C92.9098 28.1728 90.4522 25.8148 90.4522 25.2253C90.4522 25.0609 90.6661 24.4771 90.7981 24.5281C91.5308 24.8512 94.1613 24.9022 96.6598 24.9022L117.777 24.7945C120.448 24.7945 121.354 22.9126 121.7 22.9126C122.173 22.9126 124.585 25.8091 124.585 27.1015M64.7706 10.1421C64.7706 13.0952 66.5364 15.1868 69.2079 15.1868C71.8793 15.1868 73.6451 13.0896 73.6451 10.1421C73.6451 7.1946 71.8793 5.20505 69.2079 5.20505C66.5364 5.20505 64.7706 7.24562 64.7706 10.1421ZM60.6792 10.3575C60.6792 6.11764 63.651 3.05678 68.2612 2.68268C68.3022 2.41627 68.3932 2.20088 68.3932 1.93447C68.3932 1.45267 68.2612 0.97087 67.747 0.483402C67.747 -0.644579 70.6323 0.483402 70.6323 1.02188C70.6323 1.34497 70.332 2.09318 70.159 2.68835C74.7283 3.06245 77.7866 6.12331 77.7866 10.3632C77.7866 14.8184 74.2959 17.9813 69.2124 17.9813C64.1289 17.9813 60.6792 14.8127 60.6792 10.3632M81.1043 44.1175C81.1043 44.384 80.9314 44.4916 80.631 44.4916H63.8695C60.9841 44.4916 59.992 43.256 59.9055 40.4672L59.819 36.8735C59.819 36.3407 58.6949 35.6435 57.9622 35.2637C57.9213 34.9973 58.5675 34.0848 58.9134 34.0848C59.7326 34.0848 62.7909 34.3001 63.9104 34.7819H74.8102L74.8512 30.4344H63.9514C62.6134 30.4344 61.7532 30.8652 61.2799 31.398C59.728 31.1316 58.4765 28.6036 58.4355 28.2295C58.3946 27.963 58.6085 27.4246 58.8224 27.4812C60.2013 27.8043 61.9216 27.8043 64.4247 27.8043H73.3448C74.5508 27.8043 75.1971 27.64 75.6704 27.0505C76.1892 26.9994 79.6343 27.4812 79.5069 28.1784L78.4283 34.5099C79.2475 35.2581 79.7663 36.5504 79.7663 36.8735C79.7663 37.1399 79.6343 37.3553 79.4204 37.3553C79.0336 37.3553 76.576 37.2986 74.5963 37.2986H63.9104V39.6623C63.9104 41.4875 64.3428 41.8616 66.2815 41.8616H75.7159C78.3873 41.8616 78.7742 40.4672 79.0791 40.4672C79.6798 40.4672 81.1043 42.9896 81.1043 44.1175ZM86.0149 23.3491C86.0149 23.5645 85.842 23.7232 85.5416 23.7232H79.4659L58.654 23.7799C57.143 23.7799 56.1145 24.3127 55.6366 24.8002C54.3851 24.3694 52.146 22.0624 51.973 21.4729C51.9321 21.3085 52.1869 20.719 52.3189 20.77C53.0516 21.0931 55.6821 21.1498 58.1807 21.1498L79.252 21.0421C81.8826 21.0421 82.7837 19.1659 83.1705 19.1659C83.6438 19.1659 86.0149 22.0624 86.0149 23.3491ZM38.4427 23.2414C38.4427 23.7232 38.1424 23.7232 37.1047 24.0973C36.6724 24.2617 36.4585 25.1176 36.1126 26.461C35.3799 29.3064 33.0133 33.8637 28.0982 33.8637C23.1831 33.8637 20.6026 28.6546 20.4297 28.3882C20.1703 27.9574 19.7834 27.5833 19.4375 27.5833C19.2236 27.5833 19.0507 27.691 18.9233 27.7987C17.1575 29.3008 15.2187 31.0182 15.2187 34.935C15.2187 37.514 16.939 40.4615 19.8699 40.4615C22.3684 40.4615 24.0068 37.5084 24.5256 35.4678C24.6986 34.7706 24.6531 34.5042 24.9534 34.5042C25.3403 34.5042 25.4722 35.5755 25.9865 35.5755C26.4189 35.5755 26.2869 35.3091 26.8467 35.3091C27.3655 35.3091 27.4929 36.1707 27.9253 36.1707C28.5306 36.1707 29.3497 35.5245 29.7366 35.5245C29.8686 35.5245 30.0825 35.5245 30.0825 35.6832C30.0825 35.9496 29.6956 36.2217 29.3497 36.5958C28.617 37.4007 28.0572 37.8825 27.4975 39.0671C25.5132 43.2503 23.2331 44.0042 22.0681 44.435C21.6403 44.5937 21.2079 44.8658 21.035 45.3476C20.3887 47.1727 20.0019 47.3881 19.8289 47.3881C19.615 47.3881 19.5286 47.065 19.4831 46.3678C19.4375 45.6196 19.0962 44.7581 17.9311 44.486C14.9593 43.7888 11.2957 40.0307 11.2957 34.1301C11.2957 28.819 14.527 26.7274 16.1653 24.6811C16.3792 24.4147 16.5522 24.0916 16.5522 23.6098V23.4455C16.5522 23.1791 16.5067 22.856 16.2473 22.4308C14.6089 19.8518 13.3619 18.1343 11.1182 18.1343C8.66066 18.1343 6.50801 20.6567 6.50801 24.307C6.50801 28.2238 8.05992 29.5672 9.61182 30.049C10.1261 30.2077 10.299 30.2644 10.299 30.4797C10.299 30.9105 9.95315 30.8028 9.95315 31.4434C9.95315 31.9252 10.2535 31.8741 10.2535 32.6223C10.2535 33.1608 9.86668 33.3195 9.86668 34.1244C9.86668 34.7706 10.1261 34.9803 10.1261 35.3601C10.1261 35.8419 10.34 35.7909 10.34 36.8055C10.34 37.0719 10.4265 37.2873 10.2535 37.2873C10.0806 37.2873 9.86668 36.9132 9.60727 36.4314C9.00198 35.3034 8.35573 34.6062 7.88242 34.1754C4.13236 30.7972 4.00493 29.2894 3.05831 26.9824C2.84441 26.4496 2.75794 25.537 2.32559 25.265C0.946619 24.4034 0 24.137 0 22.7426C0 22.0964 0.60529 22.7426 1.55191 22.7426C2.07073 22.7426 2.67147 22.8503 2.97639 21.5126C3.62264 18.6671 6.33507 14.1042 11.0773 14.1042C16.1198 14.1042 18.6184 19.3133 18.7913 19.5797C19.1372 20.1692 19.4375 20.3846 19.7834 20.3846C19.9973 20.3846 20.1703 20.3846 20.5571 19.9538C23.7474 16.4112 24.0023 14.8581 24.0023 12.8175C24.0023 10.2385 22.3639 7.23428 19.433 7.23428C16.5021 7.23428 15.1231 10.1308 14.7363 12.279C14.6043 12.9762 14.5224 13.3503 14.263 13.3503C13.8762 13.3503 13.8762 12.7041 13.4438 12.7041C12.7521 12.7041 12.6701 13.0782 12.3243 13.0782C11.8509 13.0782 11.8509 12.0069 11.1592 12.0069C10.9862 12.0069 10.5994 12.2733 10.34 12.2733C9.69374 12.2733 9.65278 12.4321 9.34786 12.4321C9.00198 12.4321 8.66066 12.2167 8.66066 11.8992C8.66066 11.5818 8.87455 11.3608 9.56631 10.9356C10.472 10.3461 11.2912 9.91536 11.719 8.73637C13.057 5.035 15.9833 3.85034 17.1074 3.31752C17.5352 3.10213 17.7537 2.88674 17.9676 2.40494C18.8732 0.364368 19.2601 0.148975 19.5195 0.148975C19.7789 0.148975 19.7334 0.687458 19.8653 1.33364C19.9973 2.08185 19.9973 2.67701 20.9849 3.0001C23.7884 3.91269 27.9207 7.13225 27.9207 13.0329C27.9207 18.9335 23.2695 22.6406 23.0511 22.856C22.5323 23.3378 22.3593 23.7119 22.3593 24.086C22.3593 24.3524 22.4913 24.6755 22.6187 24.9986C23.7428 27.793 25.677 29.6125 27.9207 29.6125C30.5922 29.6125 32.6629 26.5006 32.6629 23.2811C32.6629 20.0615 30.9426 18.1286 29.4317 17.5392C28.8719 17.3238 28.6125 17.3238 28.6125 16.9497C28.6125 16.5189 28.9993 16.6832 28.9993 16.0371C28.9993 15.5553 28.8264 15.663 28.8264 14.9091C28.8264 14.3706 29.3452 14.2119 29.3452 13.407C29.3452 12.7608 29.0858 12.5511 29.0858 12.177C29.0858 11.6952 28.9538 11.7462 28.9538 10.7259C28.9538 10.4595 28.8673 10.2441 29.0403 10.2441C29.2542 10.2441 29.4681 10.6182 29.7275 11.1C30.3282 12.228 30.8061 13.0839 31.2794 13.4637C34.6836 16.1504 35.4163 17.8679 36.1945 20.2826C36.3675 20.8211 36.5404 21.728 37.0547 22.1078C37.4825 22.4308 38.4336 22.8106 38.4336 23.2357" fill="white"/>
</svg>
