<svg width="85" height="84" viewBox="0 0 85 84" fill="none" xmlns="http://www.w3.org/2000/svg">
<path d="M84.47 40.74C84.47 41.59 83.81 41.59 81.53 42.25C80.58 42.54 80.11 44.05 79.35 46.42C77.74 51.44 72.54 59.48 61.74 59.48C50.94 59.48 45.27 50.29 44.89 49.82C44.32 49.06 43.47 48.4 42.71 48.4C42.24 48.4 41.86 48.59 41.58 48.78C37.7 51.43 33.44 54.46 33.44 61.37C33.44 65.92 37.22 71.12 43.66 71.12C49.15 71.12 52.75 65.91 53.89 62.31C54.27 61.08 54.17 60.61 54.83 60.61C55.68 60.61 55.97 62.5 57.1 62.5C58.05 62.5 57.76 62.03 58.99 62.03C60.13 62.03 60.41 63.55 61.36 63.55C62.69 63.55 64.49 62.41 65.34 62.41C65.63 62.41 66.1 62.41 66.1 62.69C66.1 63.16 65.25 63.64 64.49 64.3C62.88 65.72 61.65 66.57 60.42 68.66C56.06 76.04 51.05 77.37 48.49 78.13C47.55 78.41 46.6 78.89 46.22 79.74C44.8 82.96 43.95 83.34 43.57 83.34C43.1 83.34 42.91 82.77 42.81 81.54C42.71 80.22 41.96 78.7 39.4 78.22C32.87 76.99 24.82 70.36 24.82 59.95C24.82 50.58 31.92 46.89 35.52 43.28C35.99 42.81 36.37 42.24 36.37 41.39V41.1C36.37 40.63 36.27 40.06 35.7 39.31C32.1 34.76 29.36 31.73 24.43 31.73C19.03 31.73 14.3 36.18 14.3 42.62C14.3 49.53 17.71 51.9 21.12 52.75C22.25 53.03 22.63 53.13 22.63 53.51C22.63 54.27 21.87 54.08 21.87 55.21C21.87 56.06 22.53 55.97 22.53 57.29C22.53 58.24 21.68 58.52 21.68 59.94C21.68 61.08 22.25 61.45 22.25 62.12C22.25 62.97 22.72 62.88 22.72 64.67C22.72 65.14 22.91 65.52 22.53 65.52C22.15 65.52 21.68 64.86 21.11 64.01C19.78 62.02 18.36 60.79 17.32 60.03C9.08 54.07 8.8 51.41 6.72 47.34C6.25 46.4 6.06 44.79 5.11 44.31C2.08 42.79 0 42.32 0 39.86C0 38.72 1.33 39.86 3.41 39.86C4.55 39.86 5.87 40.05 6.54 37.69C7.96 32.67 13.92 24.62 24.34 24.62C35.42 24.62 40.91 33.81 41.29 34.28C42.05 35.32 42.71 35.7 43.47 35.7C43.94 35.7 44.32 35.7 45.17 34.94C52.18 28.69 52.74 25.95 52.74 22.35C52.74 17.8 49.14 12.5 42.7 12.5C36.26 12.5 33.23 17.61 32.38 21.4C32.09 22.63 31.91 23.29 31.34 23.29C30.49 23.29 30.49 22.15 29.54 22.15C28.02 22.15 27.84 22.81 27.08 22.81C26.04 22.81 26.04 20.92 24.52 20.92C24.14 20.92 23.29 21.39 22.72 21.39C21.3 21.39 21.21 21.67 20.54 21.67C19.78 21.67 19.03 21.29 19.03 20.73C19.03 20.17 19.5 19.78 21.02 19.03C23.01 17.99 24.81 17.23 25.75 15.15C28.69 8.62 35.12 6.53 37.59 5.59C38.53 5.21 39.01 4.83 39.48 3.98C41.47 0.38 42.32 0 42.89 0C43.46 0 43.36 0.95 43.65 2.09C43.94 3.41 43.94 4.46 46.11 5.03C52.27 6.64 61.35 12.32 61.35 22.73C61.35 33.14 51.13 39.68 50.65 40.06C49.51 40.91 49.13 41.57 49.13 42.23C49.13 42.7 49.42 43.27 49.7 43.84C52.17 48.77 56.42 51.98 61.35 51.98C67.22 51.98 71.77 46.49 71.77 40.81C71.77 35.13 67.99 31.72 64.67 30.68C63.44 30.3 62.87 30.3 62.87 29.64C62.87 28.88 63.72 29.17 63.72 28.03C63.72 27.18 63.34 27.37 63.34 26.04C63.34 25.09 64.48 24.81 64.48 23.39C64.48 22.25 63.91 21.88 63.91 21.22C63.91 20.37 63.62 20.46 63.62 18.66C63.62 18.19 63.43 17.81 63.81 17.81C64.28 17.81 64.75 18.47 65.32 19.32C66.64 21.31 67.69 22.82 68.73 23.49C76.21 28.23 77.82 31.26 79.53 35.52C79.91 36.47 80.29 38.07 81.42 38.74C82.36 39.31 84.45 39.98 84.45 40.73" fill="#231F20"/>
</svg>
