<svg xmlns="http://www.w3.org/2000/svg" xmlns:xlink="http://www.w3.org/1999/xlink" width="189.562" height="54.695" viewBox="0 0 189.562 54.695">
  <defs>
    <clipPath id="clip-path">
      <rect id="사각형_13" data-name="사각형 13" width="189.562" height="54.695" fill="none"/>
    </clipPath>
  </defs>
  <g id="logo" transform="translate(0 -0.001)">
    <g id="그룹_3" data-name="그룹 3" transform="translate(0 0.001)" clip-path="url(#clip-path)">
      <path id="패스_7" data-name="패스 7" d="M0,38.727S7.769,51.261,15.634,51.956c9.979.881,9.646-6.615,9.646-6.615L16.3,30.79S10.647,14.033,25.282,5.8,56.88.511,56.88.511s4.989,1.175,5.988,7.348c0,0-4.325-8.819-20.291-4.409,0,0-1.332-.294-1.332,2.94s6.986,13.671,8.317,19.623,7.65,9.774-11.311,23c0,0,3.326-6.173,3.659-10.584s-7.319-12.419-7.319-12.419-.4,7.029,3,11.831S31.267,51.662,26.611,53.425,13.305,54.6,13.305,54.6L3.992,48.428Z" transform="translate(0 -0.001)" fill="#6aae27"/>
      <path id="패스_8" data-name="패스 8" d="M35.3,13.633a3.349,3.349,0,0,1,3.587-3.492,3.273,3.273,0,0,1,3.427,3.492v28.64a3.28,3.28,0,0,1-3.427,3.633A3.387,3.387,0,0,1,35.3,42.273Z" transform="translate(24.062 5.809)"/>
      <path id="패스_9" data-name="패스 9" d="M66.211,22.927c-.927,1.557-1.855,3.209-2.781,5.049-.967,1.84-1.9,3.492-2.741,5a2.861,2.861,0,0,1-2.62,1.51,2.805,2.805,0,0,1-2.539-1.557L50.087,22.691V42.272a3.293,3.293,0,0,1-3.466,3.633,3.328,3.328,0,0,1-3.508-3.633V13.679a3.379,3.379,0,0,1,3.508-3.539c2.216,0,3.466.472,4.917,3.114l6.53,11.985L64.84,13.254c1.33-2.312,2.459-3.114,4.838-3.114a3.286,3.286,0,0,1,3.466,3.539V42.272a3.471,3.471,0,1,1-6.933,0Z" transform="translate(29.388 5.808)"/>
      <path id="패스_10" data-name="패스 10" d="M71.532,42.273a3.309,3.309,0,0,1-3.426,3.633,3.374,3.374,0,0,1-3.589-3.633V12.641c0-1.651,1.17-2.5,2.9-2.5h9.513c6.853,0,12.577,3.069,12.577,11.089v.283c0,8.022-5.442,11.136-12.254,11.136H71.532Zm5.724-15.005c3.264,0,5.28-1.7,5.28-5.426v-.661c0-3.633-2.5-5.238-5.886-5.238H71.532V27.268Z" transform="translate(43.979 5.808)"/>
      <path id="패스_11" data-name="패스 11" d="M81.857,34.958c-.04-2.265-.079-4.53-.079-6.793,0-2.218.039-4.53.079-6.889.121-8.163,5.361-11.136,12.295-11.136,6.732,0,11.931,3.3,12.254,11.136.161,4.53.121,9.39,0,13.682-.121,7.88-5.442,11.183-12.254,11.183-7.095,0-12.174-3.02-12.295-11.183M94.152,15.944c-3.506,0-5.442,1.746-5.563,5.379-.081,4.577-.081,9.105,0,13.635.121,3.728,2.057,5.332,5.563,5.332,3.266,0,5.361-1.793,5.563-5.378.283-4.484.121-8.871,0-13.637-.121-3.633-2.216-5.332-5.563-5.332" transform="translate(55.745 5.808)"/>
      <path id="패스_12" data-name="패스 12" d="M99.875,13.633a3.319,3.319,0,0,1,3.548-3.492,3.213,3.213,0,0,1,3.426,3.492V40.008h11.609a2.713,2.713,0,0,1,3.024,3.02,2.694,2.694,0,0,1-3.024,2.878H103.181a3,3,0,0,1-3.306-3.256Z" transform="translate(68.081 5.809)"/>
    </g>
  </g>
</svg>
