<svg width="320" height="320" viewBox="0 0 320 320" fill="none" xmlns="http://www.w3.org/2000/svg">
<g clip-path="url(#clip0_134_49)">
<path d="M80.8352 106.334C81.0067 105.841 80.8863 104.778 81.0328 104.576C81.1149 104.462 81.2595 104.382 81.3807 104.334L82.1907 104.562C84.5921 102.078 87.5081 101.595 90.3477 103.624C93.3332 105.759 92.7465 109.42 90.8463 112.081C88.6883 115.099 85.6648 116.651 82.3309 114.265C79.4913 112.236 79.8519 109.263 80.8352 106.334ZM89.4566 111.187C91.0953 108.904 91.4558 106.734 88.9705 104.948C86.0742 102.878 85.0514 104.804 82.6848 105.944C81.7263 108.583 80.8163 110.899 83.5101 112.822C85.8495 114.502 87.9726 113.273 89.4647 111.193L89.4566 111.187ZM70.0446 114.24C69.8421 114.093 69.9229 113.794 70.046 113.624C70.5324 112.951 71.1741 112.354 71.7321 111.77C73.1279 110.25 74.3133 108.355 75.53 106.656L77.3233 104.176L75.1635 102.589L74.1993 101.892C73.2678 103.316 70.9449 107.671 69.0187 106.29C68.2003 105.698 67.4573 104.951 66.6389 104.359C65.7071 103.685 64.9473 103.012 63.781 103.465C63.5386 103.561 63.2052 103.715 62.9459 103.527C62.6218 103.293 62.5247 103 62.7943 102.628C64.1341 100.758 66.1736 101.863 67.5812 102.869C68.3105 103.396 70.0007 105.359 70.6981 104.395C72.8093 101.442 75.0321 98.471 76.8664 95.3547C77.127 94.9262 77.28 94.4074 77.5731 94.0023C77.8075 93.6782 78.0928 93.4032 78.4979 93.6962C79.5188 94.4346 75.971 99.3228 75.3881 100.197C76.4568 100.921 77.4926 101.707 78.5283 102.493C80.3132 99.8717 82.3259 97.2424 83.8604 94.4894C84.0968 94.0433 84.2174 93.5011 84.5104 93.0959C84.7624 92.7475 85.1435 92.5789 85.5244 92.8543C86.2536 93.3818 85.5945 94.3613 85.2784 94.9349C82.5842 99.5643 79.216 103.965 76.091 108.32C75.417 109.252 71.6107 115.385 70.0572 114.274L70.0446 114.24ZM61.6049 101.286C62.7565 99.9839 63.8279 98.6732 64.8337 97.2655C66.2204 95.3312 67.6567 93.26 68.835 91.1873C69.0713 90.7411 69.1595 90.1755 69.4525 89.7704C69.7045 89.422 70.1181 89.2768 70.5047 89.5441C71.234 90.0716 70.6073 91.0746 70.2588 91.6247C68.4967 94.5217 66.4861 97.3869 64.5214 100.137C64.076 100.753 62.4352 102.8 61.4651 102.111C61.1734 101.9 61.4341 101.471 61.613 101.292L61.6049 101.286Z" fill="white"/>
<path d="M101.458 96.9489C100.553 95.7763 99.7592 94.6219 98.7146 93.5579C98.3055 93.731 97.1767 93.9266 96.8491 93.4922C96.6241 93.206 96.9748 92.8919 97.1987 92.77C98.7937 91.7762 100.292 90.7621 101.771 89.6223C103.684 88.155 105.583 86.6038 107.387 84.9963C106.732 83.9055 105.958 82.9628 105.22 81.9354L97.5504 88.1372C96.9452 88.6498 94.8022 90.1112 94.0778 89.1676C93.8609 88.8873 94.2291 88.5489 94.4589 88.4189C96.0846 87.3485 97.577 86.2065 99.1127 85.0217L97.0559 82.3369C96.055 83.1064 87.5401 90.5111 86.2446 88.8213C86.0277 88.541 86.4018 88.1944 86.6257 88.0725C89.1583 86.5844 91.4014 84.8993 93.7487 83.1044C97.5487 80.1881 101.782 77.2523 105.197 73.8966C105.555 73.5383 105.802 73.026 106.197 72.7191C106.534 72.4572 106.982 72.4354 107.264 72.8126C108.296 74.1509 99.6055 80.3305 98.579 81.1184L100.636 83.8031C101.694 82.9887 103.179 82.0268 104.052 81.0415C104.231 80.8624 104.912 79.9724 105.052 79.864C105.504 79.5121 106.048 79.8687 106.337 80.2378C107.151 81.2958 107.92 82.4687 108.619 83.5667C108.956 83.3049 109.423 83.3088 109.687 83.6603C110.231 84.3749 109.333 85.1566 108.842 85.5792C106.134 88.0265 103.169 90.3002 100.255 92.537C101.152 93.5316 101.959 94.5838 102.69 95.7053C102.928 95.8892 103.61 95.5433 103.781 95.4083C106.638 93.2165 109.551 90.9297 112.165 88.476C112.541 88.1435 112.833 87.6883 113.228 87.3815C113.54 87.138 113.896 86.9518 114.205 87.3605C115.083 88.5015 107.114 94.6225 105.865 95.5823C104.724 96.4602 102.722 98.5792 101.447 96.929L101.458 96.9489ZM82.7145 75.8025C85.4565 73.7006 88.0417 78.2485 89.6038 79.8597C89.9945 80.241 90.3892 79.9341 90.7348 79.6781C93.0997 77.8588 95.6186 75.9289 97.6693 73.759C96.5334 71.8144 95.1692 69.9638 93.8351 68.1226L87.7799 73.1843C87.1747 73.6969 85.0132 75.1325 84.2887 74.1889C84.0719 73.9087 84.454 73.568 84.6698 73.4402C85.2894 73.0614 86.003 72.689 86.5694 72.2471C88.5139 70.7532 90.9687 69.0484 92.6381 67.2692C92.9306 66.9501 93.3188 66.3793 93.6644 66.1233C94.1245 65.7772 94.6922 66.1015 94.9747 66.4786C95.7892 67.5367 100.633 73.8417 99.3462 74.8361C99.1173 75.0161 98.7584 74.9663 98.522 74.8324C97.7124 75.3205 93.0926 79.6432 91.5488 80.8221C88.2404 83.3658 87.8482 79.8981 85.351 77.7711C84.5183 77.0454 82.6854 76.7811 82.532 76.5837C82.3335 76.3291 82.4856 75.9825 82.7086 75.8106L82.7145 75.8025Z" fill="white"/>
<path d="M137.08 71.9778C131.778 74.548 125.965 76.4771 120.474 78.5405C119.426 78.9307 114.318 81.2836 113.675 79.5965C113.549 79.2586 114.009 79.0486 114.259 78.9943C117.045 78.3319 119.611 77.3613 122.306 76.3485L125.406 75.1846C125.105 74.0656 124.73 72.9799 124.34 71.9325C124.038 71.1217 123.708 70.3653 123.385 69.6007C122.384 70.0121 119.228 71.321 118.338 71.3065C117.186 71.3124 114.673 63.9169 113.81 62.5516C113.229 61.6135 111.503 60.8093 111.453 60.6742C111.327 60.3363 111.522 60.0329 111.859 59.907C114.52 58.9068 115.829 62.3706 116.589 64.2037C119.925 62.9517 123.263 61.6137 126.542 60.1846C126.083 58.9764 125.63 57.7601 125.07 56.5896C124.203 54.8023 123.13 55.433 122.916 54.8587C122.752 54.4194 122.799 54.1326 123.272 53.9563C125.697 53.0442 126.852 55.9166 127.5 57.6316C127.984 58.9074 131.125 66.4241 129.503 67.0283C129.335 67.0913 129.01 66.9429 128.905 66.8667C127.805 67.7379 126.576 68.2432 125.325 68.795C126.07 70.6664 126.815 72.5378 127.414 74.4397C130.286 73.2837 133.441 72.2829 136.166 70.8354C136.614 70.5917 136.999 70.1789 137.464 69.9968C137.836 69.8584 138.295 69.9564 138.447 70.3619C138.774 71.2403 137.713 71.6828 137.097 71.9895L137.08 71.9778ZM119.854 69.4659C122.752 68.3775 125.578 67.2004 128.232 65.5781C128.035 64.8434 127.868 64.2903 127.644 63.61L126.972 61.5194C123.685 62.9065 120.403 64.1856 117.098 65.5471C117.534 66.6157 118.336 70.0463 119.848 69.474L119.854 69.4659Z" fill="white"/>
<path d="M139.388 70.4256C139.365 70.0639 139.87 69.9972 140.117 70.0149C143.087 70.2255 145.894 70.0468 148.835 69.8538L151.962 69.6596C152.005 68.6787 151.944 67.6716 151.889 66.7064L151.819 65.5575C149.287 65.3553 146.829 63.6016 146.654 60.9083C146.471 58.073 148.309 55.7868 150.926 54.8653C151.24 54.7719 151.527 54.6829 151.767 54.4867C151.911 54.4422 152.292 54.2736 152.398 54.2637C152.681 54.2468 152.878 54.4874 152.932 54.7365L152.893 55.2513C155.444 55.6652 157.569 57.3006 157.742 60.03C157.909 62.5815 156.198 64.6394 153.788 65.3273C153.912 66.7254 154.036 68.1234 154.018 69.5299C157.098 69.2645 160.418 69.197 163.446 68.6104C163.944 68.5018 164.428 68.2594 164.932 68.2286C165.357 68.2033 165.738 68.3927 165.771 68.8602C165.827 69.7894 164.68 69.8732 163.996 69.9831C158.675 70.7874 153.172 70.9908 147.813 71.3358C146.664 71.4057 139.507 72.3258 139.388 70.4256ZM152.406 64.0811C154.81 63.9314 156.125 62.4024 155.976 59.9986C155.756 56.5819 152.631 57.3202 151.834 56.1518C149.738 57.1903 148.215 58.1868 148.378 60.8104C148.51 62.9664 150.358 64.2166 152.408 64.095L152.406 64.0811ZM143.955 51.9957C145.442 52.158 146.565 52.1925 148.039 52.0989C150.875 51.9158 153.868 51.8719 156.688 51.369C157.294 51.2644 157.852 50.9027 158.462 50.8622C158.893 50.8287 159.238 51.1027 159.263 51.5284C159.321 52.4215 158.213 52.5707 157.53 52.6445C153.961 53.1605 150.218 53.3534 146.631 53.5856C145.88 53.6346 143.314 53.581 143.238 52.3902C143.216 52.0285 143.72 51.9618 143.967 51.9795L143.955 51.9957ZM147.259 47.8198C147.763 47.7891 150.346 48.6704 152.211 48.5501C153.076 48.4971 153.879 48.1892 154.708 48.1348C155.139 48.1013 155.484 48.3754 155.509 48.801C155.566 49.7302 152.476 49.8897 151.825 49.937C150.57 50.0168 146.975 50.2431 146.855 48.3789C146.842 48.1231 146.967 47.8309 147.259 47.8198Z" fill="white"/>
<path d="M176.025 67.65C178.858 68.341 177.756 72.4067 177.291 74.3291C177.021 75.4539 176.01 76.8336 177.553 77.209C180.839 78.0061 184.193 78.8642 187.542 79.3862C188.036 79.4717 188.571 79.4144 189.063 79.5359C189.413 79.6158 189.814 79.7949 189.708 80.2488C189.349 81.7172 180.68 79.4211 179.352 79.0901C177.853 78.722 174.381 78.5061 174.898 76.3748C175.337 74.557 176.083 72.7398 176.095 70.8473C176.103 70.187 176.085 69.3592 175.606 68.8775C175.433 68.6904 175.147 68.4714 175.226 68.1579C175.331 67.7401 175.563 67.538 176.017 67.6442L176.025 67.65ZM193.404 50.0202C195.291 50.4836 196.442 52.612 196.003 54.4298L194.17 62.1007C193.548 64.6499 192.978 67.2982 192.177 69.8044C192.027 70.2511 190.98 72.7396 190.353 72.5825C189.69 72.4239 190.341 69.6122 190.432 69.1966C191.683 64.0541 193.424 58.8832 194.181 53.6553C194.463 51.5761 192.27 51.298 192.497 50.388C192.592 50.0003 193.091 49.9416 193.404 50.0202ZM181.567 57.0704C182.059 57.1919 182.491 57.5165 182.983 57.6379C184.272 57.9536 185.659 58.0676 186.991 58.2046C187.346 56.6222 187.777 54.9845 188.014 53.3781C188.325 51.3444 186.127 50.9524 186.338 50.0807C186.434 49.6929 186.953 49.6739 187.267 49.7525C189.085 50.1911 190.285 52.2686 189.863 54.0122L189.277 56.4267L188.17 61.2666L187.584 63.6811C187.357 64.6272 186.022 70.8573 184.763 70.551C184.1 70.3925 184.751 67.5808 184.857 67.1269C185.46 64.6381 186.111 62.1344 186.678 59.6442C185.412 59.5181 184.1 59.4209 182.879 59.13C182.073 58.9299 180.798 58.2179 180.695 57.3035C180.79 56.9158 181.283 57.0013 181.567 57.0704ZM168.873 63.2053C168.942 62.922 170.681 62.0198 171.035 61.7696C174.235 59.5798 176.492 55.7941 177.394 52.09C177.526 51.5316 177.723 49.5019 178.639 49.72C179.794 50.0001 179.693 51.198 179.468 52.072C179.119 53.5103 178.625 54.943 177.964 56.2667C178.844 59.3339 179.643 62.3065 182.071 64.4948C182.348 64.744 182.697 65.132 182.628 65.5513C182.428 65.9128 181.935 65.8273 181.651 65.7582C178.714 65.041 177.466 60.88 176.78 58.3475C175.562 60.1689 171.52 64.2556 169.149 63.6766C168.866 63.6075 168.797 63.4466 168.857 63.1936L168.873 63.2053Z" fill="white"/>
<path d="M212.268 90.1114C214.332 86.7791 216.65 83.5925 218.729 80.2219L219.72 78.6305C218.245 78.008 216.708 77.4025 215.364 76.5657C214.656 76.1279 213.634 75.1174 213.819 74.2141C214.053 73.89 214.475 74.1087 214.722 74.2625C216.709 75.4902 218.342 76.4241 220.524 77.3484C222.044 74.8197 223.74 72.2199 225.116 69.5996C226.077 67.7767 224.063 66.7895 224.558 65.9868C224.744 65.6775 225.231 65.7211 225.502 65.8924C227.18 66.9335 227.614 69.3203 226.623 70.9117L219.294 82.8025C217.531 85.6495 215.713 88.5054 213.735 91.2221C213.46 91.6029 211.704 93.6897 211.148 93.3493C210.535 92.9678 212.023 90.5017 212.274 90.1033L212.268 90.1114ZM205.366 63.855C207.727 65.3163 205.926 68.012 204.983 69.6745C206.821 70.7328 208.772 71.6872 210.714 72.5857C211.36 72.9045 212.197 72.992 212.81 73.3735C213.271 73.6575 213.299 74.0111 213.033 74.4478C212.4 75.4589 205.341 71.5506 204.202 70.9243C203.129 72.7151 202.001 74.4789 200.809 76.1958C203.397 77.5492 206.538 78.6489 209.377 79.4679C210.102 79.6593 211.757 79.7947 212.275 80.1198C212.426 80.2171 212.608 80.41 212.487 80.5941C211.407 82.3431 201.563 78.3951 200.124 77.5019C199.758 77.2742 198.641 76.2074 198.948 75.714C199.948 74.0925 201.138 72.5336 202.138 70.912C202.933 69.624 203.762 68.3595 204.406 66.9741C205.304 65.1183 204.188 64.5955 204.505 64.072C204.716 63.7303 204.973 63.5958 205.364 63.8411L205.366 63.855ZM205.688 61.003C206.777 61.8523 207.849 62.6398 209.018 63.3617C211.005 64.5894 213.123 65.6889 215.201 66.723C215.847 67.0419 216.59 67.209 217.208 67.5824C217.55 67.7925 217.753 68.211 217.52 68.5851C217.041 69.3495 216.006 68.8354 215.408 68.5017C212.598 67.0122 209.757 65.5132 207.068 63.8395C206.393 63.4252 204.253 61.964 204.895 60.9228C205.082 60.6135 205.503 60.8322 205.694 60.9949L205.688 61.003Z" fill="white"/>
<path d="M258.134 106.007C258.704 107.641 259.324 109.225 260.069 110.788C261.081 112.939 262.182 115.204 263.425 117.239C263.709 117.666 264.151 118.011 264.361 118.471C264.546 118.864 264.471 119.291 264.053 119.495C263.233 119.877 262.665 118.837 262.359 118.27C260.696 115.314 259.167 112.172 257.73 109.109C257.412 108.422 256.419 105.989 257.491 105.48C257.816 105.321 258.06 105.768 258.142 106.013L258.134 106.007ZM242.718 107.05C242.944 106.942 243.166 107.165 243.261 107.357C243.61 108.103 243.813 108.966 244.064 109.727C244.708 111.687 245.791 113.654 246.674 115.539L247.978 118.309L250.401 117.211L251.48 116.708C250.688 115.209 248.03 111.053 250.181 110.042C251.094 109.616 252.115 109.33 253.027 108.904C254.073 108.414 255.03 108.081 255.204 106.85C255.242 106.593 255.261 106.225 255.561 106.084C255.92 105.911 256.223 105.97 256.421 106.397C257.407 108.48 255.436 109.72 253.879 110.458C253.059 110.84 250.522 111.362 251.03 112.433C252.576 115.723 254.087 119.111 255.919 122.226C256.168 122.666 256.545 123.049 256.761 123.502C256.933 123.861 257.032 124.253 256.58 124.469C255.441 125.003 252.899 119.524 252.419 118.584C251.259 119.164 250.076 119.691 248.891 120.203C250.306 123.041 251.611 126.083 253.274 128.767C253.557 129.194 253.96 129.559 254.175 130.011C254.36 130.404 254.319 130.819 253.893 131.016C253.081 131.404 252.539 130.346 252.199 129.792C249.475 125.18 247.277 120.097 244.992 115.236C244.502 114.191 241.01 107.876 242.742 107.068L242.718 107.05ZM244.348 120.324C244.691 120.72 245.68 121.127 245.782 121.361C245.847 121.494 245.843 121.652 245.822 121.785L245.23 122.381C246.233 125.686 245.233 128.468 242.071 129.957C238.747 131.515 235.845 129.231 234.446 126.269C232.861 122.914 232.982 119.521 236.691 117.772C239.853 116.283 242.278 118.05 244.342 120.332L244.348 120.324ZM235.91 125.489C237.107 128.033 238.831 129.403 241.595 128.107C244.817 126.587 243.635 124.757 243.801 122.138C241.964 120.019 240.389 118.102 237.391 119.501C234.788 120.728 234.822 123.172 235.91 125.489Z" fill="white"/>
<path d="M270.104 136.928C270.595 140.344 265.365 140.375 263.192 140.939C262.665 141.088 262.737 141.585 262.799 142.012C263.224 144.973 263.677 148.101 264.558 150.961C266.808 150.922 269.089 150.634 271.347 150.379L269.9 142.619C269.747 141.841 269.56 139.25 270.735 139.076C271.092 139.026 271.193 139.518 271.197 139.768C271.228 140.493 271.2 141.3 271.306 142.006C271.652 144.429 271.944 147.404 272.676 149.736C272.807 150.152 273.114 150.768 273.176 151.195C273.259 151.762 272.691 152.104 272.228 152.164C270.905 152.355 263.038 153.489 262.802 151.887C262.763 151.6 262.968 151.316 263.21 151.17C263.187 150.228 261.676 144.076 261.397 142.158C260.806 138.028 264.015 139.374 267.086 138.251C268.122 137.877 269.255 136.413 269.506 136.373C269.827 136.321 270.055 136.621 270.094 136.909L270.104 136.928ZM242.489 142.91C243.952 142.696 245.35 142.572 246.783 142.177C246.828 141.74 247.219 140.654 247.752 140.582C248.109 140.532 248.211 140.988 248.209 141.246C248.296 143.123 248.449 144.925 248.717 146.772C249.065 149.159 249.48 151.57 250.004 153.935C251.265 153.897 252.478 153.688 253.729 153.545L252.075 143.82C251.921 143.042 251.698 140.45 252.876 140.289C253.233 140.239 253.333 140.732 253.338 140.982C253.471 142.93 253.739 144.777 254.013 146.703L257.359 146.223C257.179 144.97 254.889 133.922 256.997 133.619C257.354 133.569 257.454 134.061 257.467 134.317C257.524 137.258 257.892 140.042 258.311 142.962C258.993 147.701 259.48 152.829 260.724 157.456C260.867 157.942 261.185 158.406 261.265 158.909C261.327 159.336 261.132 159.725 260.663 159.793C258.991 160.04 257.861 149.436 257.677 148.155L254.33 148.635C254.521 149.958 254.632 151.717 255.062 152.965C255.13 153.212 255.574 154.237 255.603 154.418C255.687 154.985 255.106 155.293 254.643 155.353C253.32 155.544 251.917 155.64 250.618 155.713C250.68 156.14 250.443 156.536 250.016 156.597C249.12 156.727 248.881 155.555 248.758 154.923C247.951 151.364 247.42 147.661 246.901 144.028C245.602 144.322 244.279 144.513 242.947 144.598C242.671 144.707 242.63 145.48 242.672 145.695C243.179 149.259 243.753 152.919 244.614 156.405C244.722 156.903 244.976 157.371 245.043 157.876C245.106 158.267 245.085 158.671 244.588 158.744C243.167 158.95 241.729 149.012 241.506 147.444C241.299 146.023 240.429 143.234 242.494 142.938L242.489 142.91Z" fill="white"/>
<path d="M246.792 186.206C247.136 180.321 248.312 174.31 249.192 168.504C249.359 167.402 249.817 161.786 251.594 162.059C251.953 162.109 251.906 162.618 251.838 162.865C251.056 165.619 250.639 168.328 250.208 171.176L249.703 174.452C250.822 174.73 251.966 174.94 253.067 175.107C253.925 175.235 254.749 175.324 255.572 175.414C255.694 174.342 256.107 170.938 256.55 170.172C257.104 169.167 264.788 170.59 266.401 170.51C267.502 170.455 269.057 169.345 269.198 169.373C269.551 169.431 269.716 169.748 269.672 170.099C269.243 172.911 265.573 172.354 263.617 172.124C263.08 175.648 262.607 179.219 262.253 182.763C263.53 182.959 264.814 183.147 266.112 183.247C268.1 183.364 268.073 182.122 268.674 182.212C269.138 182.288 269.367 182.466 269.289 182.965C268.898 185.521 265.82 185.134 264.013 184.851C262.655 184.647 254.576 183.703 254.832 182C254.861 181.823 255.15 181.612 255.263 181.558C255.041 180.176 255.208 178.853 255.34 177.492C253.341 177.219 251.345 176.959 249.403 176.555C249.008 179.626 248.335 182.879 248.264 185.962C248.253 186.472 248.432 187.009 248.355 187.509C248.296 187.898 247.988 188.255 247.555 188.189C246.63 188.051 246.768 186.904 246.794 186.22L246.792 186.206ZM257.405 172.42C256.944 175.48 256.586 178.517 256.692 181.63C257.432 181.819 257.988 181.937 258.698 182.081L260.852 182.516C261.243 178.972 261.743 175.483 262.169 171.941C261.023 171.803 257.641 170.813 257.397 172.414L257.405 172.42Z" fill="white"/>
<path d="M262.911 206.886C262.691 207.343 260.662 209.159 259.859 210.849C259.483 211.626 259.356 212.484 259.002 213.228C258.815 213.624 258.412 213.789 258.031 213.599C257.186 213.198 258.558 210.413 258.838 209.839C259.386 208.705 260.934 205.456 262.632 206.264C262.858 206.378 263.057 206.633 262.933 206.889L262.911 206.886ZM260.881 201.962C260.01 203.183 259.441 204.141 258.796 205.477C257.568 208.044 256.15 210.671 255.208 213.372C255.008 213.956 255.05 214.615 254.787 215.166C254.606 215.553 254.203 215.718 253.816 215.536C253.001 215.144 253.415 214.111 253.686 213.48C254.978 210.107 256.63 206.748 258.192 203.497C258.52 202.821 259.818 200.6 260.889 201.116C261.208 201.272 261.026 201.745 260.887 201.954L260.881 201.962ZM247.022 188.976C247.341 189.133 247.159 189.606 247.021 189.814C245.388 192.311 244.175 194.84 242.897 197.495L241.546 200.319C242.381 200.836 243.289 201.271 244.158 201.69L245.197 202.182C246.604 200.065 249.349 198.779 251.777 199.943C254.345 201.171 255.434 203.897 254.969 206.621C254.893 206.948 254.832 207.238 254.887 207.537C254.854 207.685 254.813 208.1 254.765 208.201C254.641 208.457 254.336 208.52 254.087 208.439L253.662 208.156C252.052 210.176 249.594 211.237 247.12 210.052C244.816 208.953 243.857 206.458 244.43 204.009C243.148 203.427 241.868 202.86 240.652 202.153C239.378 204.971 237.815 207.901 236.854 210.834C236.702 211.316 236.675 211.865 236.455 212.323C236.268 212.718 235.918 212.946 235.498 212.741C234.653 212.34 235.151 211.293 235.384 210.647C237.281 205.601 239.788 200.701 242.113 195.866C242.605 194.828 245.297 188.136 247.026 188.954L247.022 188.976ZM246.207 203.43C245.166 205.603 245.857 207.497 248.029 208.538C251.118 210.018 251.996 206.927 253.408 206.8C253.528 204.468 253.4 202.648 251.034 201.517C249.08 200.584 247.085 201.585 246.207 203.43Z" fill="white"/>
<path d="M238.366 246.076C237.041 247.5 234.62 247.452 233.247 246.175L227.465 240.809C225.544 239.012 223.523 237.216 221.731 235.291C221.411 234.949 219.764 232.807 220.203 232.335C220.675 231.837 222.799 233.78 223.118 234.073C226.979 237.693 230.638 241.746 234.817 244.978C236.489 246.249 237.8 244.47 238.484 245.112C238.77 245.381 238.58 245.849 238.36 246.085L238.366 246.076ZM238.029 232.294C237.688 232.664 237.185 232.881 236.844 233.251C235.932 234.221 235.158 235.376 234.381 236.468C235.586 237.549 236.801 238.736 238.078 239.734C239.701 241.007 241.121 239.282 241.778 239.892C242.064 240.161 241.824 240.63 241.604 240.866C240.32 242.232 237.932 242.257 236.619 241.036L234.807 239.343L231.127 236.002L229.315 234.31C228.607 233.65 223.826 229.426 224.711 228.474C225.183 227.976 227.307 229.92 227.644 230.238C229.515 231.986 231.378 233.778 233.266 235.501C233.994 234.46 234.722 233.37 235.59 232.443C236.151 231.837 237.404 231.077 238.257 231.434C238.543 231.703 238.234 232.097 238.032 232.308L238.029 232.294ZM238.916 218.237C239.127 218.439 239.069 220.396 239.103 220.828C239.436 224.685 241.626 228.515 244.408 231.12C244.829 231.51 246.499 232.682 245.857 233.365C245.044 234.233 244.054 233.554 243.403 232.935C242.332 231.926 241.318 230.785 240.493 229.571C237.387 228.831 234.408 228.07 231.309 229.112C230.955 229.226 230.451 229.343 230.114 229.075C229.9 228.723 230.218 228.335 230.412 228.118C232.478 225.909 236.713 226.862 239.261 227.52C238.281 225.565 236.699 220.039 238.366 218.246C238.568 218.035 238.743 218.05 238.922 218.229L238.916 218.237ZM231.529 222.273C229.535 224.398 226.534 221.45 225.084 220.093C224.242 219.311 223.533 217.749 222.451 218.904C220.133 221.375 217.748 223.87 215.642 226.543C215.325 226.931 215.112 227.431 214.762 227.795C214.519 228.063 214.167 228.327 213.83 228.009C212.725 226.976 218.985 220.556 219.92 219.554C220.976 218.418 222.872 215.506 224.475 217.011C225.841 218.295 227.068 219.824 228.702 220.772C229.272 221.11 229.999 221.488 230.652 221.318C230.907 221.256 231.229 221.118 231.465 221.338C231.784 221.631 231.847 221.936 231.523 222.281L231.529 222.273Z" fill="white"/>
<path d="M222.822 251.359C221.555 251.899 220.34 252.452 219.144 253.117C217.099 254.254 215.103 255.563 213.194 256.872C212.601 257.283 212.091 257.852 211.467 258.202C211.118 258.395 210.655 258.369 210.437 257.988C209.995 257.2 210.958 256.551 211.535 256.179C214.202 254.454 216.894 252.712 219.67 251.177C220.367 250.793 222.68 249.627 223.274 250.699C223.454 251.014 223.058 251.271 222.822 251.359ZM194.199 242.899C196.097 246.333 197.751 249.899 199.675 253.364L200.589 255C201.848 254.01 203.129 252.974 204.51 252.208C205.233 251.806 206.616 251.411 207.321 252.007C207.479 252.369 207.091 252.631 206.842 252.772C204.797 253.909 203.198 254.875 201.319 256.33C202.783 258.895 204.219 261.637 205.848 264.111C206.97 265.836 208.814 264.565 209.269 265.388C209.448 265.703 209.169 266.105 208.886 266.258C207.156 267.216 204.86 266.432 203.96 264.794L197.145 252.596C195.522 249.669 193.912 246.691 192.505 243.637C192.308 243.21 191.348 240.664 191.912 240.345C192.544 240 193.97 242.499 194.193 242.907L194.199 242.899ZM220.49 249.685C218.071 251.033 216.591 248.148 215.605 246.509C213.783 247.611 211.996 248.836 210.264 250.088C209.671 250.498 209.187 251.185 208.554 251.53C208.081 251.792 207.756 251.644 207.507 251.204C206.925 250.166 213.79 245.912 214.888 245.213C213.838 243.405 212.862 241.564 211.944 239.677C209.501 241.28 207.019 243.483 204.916 245.554C204.394 246.089 203.469 247.469 202.93 247.771C202.772 247.854 202.517 247.916 202.416 247.732C201.418 245.937 209.658 239.271 211.144 238.445C211.519 238.235 213.001 237.789 213.282 238.288C214.209 239.958 214.99 241.745 215.917 243.415C216.652 244.737 217.347 246.079 218.247 247.309C219.434 248.995 220.43 248.284 220.729 248.809C220.921 249.157 220.918 249.451 220.51 249.674L220.49 249.685Z" fill="white"/>
<path d="M157.902 275.133C156.198 274.827 154.514 274.596 152.79 274.472C150.42 274.301 147.903 274.147 145.51 274.23C145.001 274.269 144.477 274.482 143.976 274.441C143.541 274.41 143.202 274.128 143.242 273.663C143.313 272.764 144.497 272.781 145.143 272.792C148.538 272.791 152.024 273.005 155.401 273.25C156.154 273.301 158.772 273.64 158.683 274.822C158.655 275.184 158.153 275.179 157.908 275.125L157.902 275.133ZM164.555 261.174C164.537 261.42 164.237 261.512 164.026 261.495C163.201 261.442 162.353 261.198 161.574 261.03C159.547 260.625 157.31 260.611 155.223 260.46L152.173 260.24L151.941 262.899L151.851 264.081C153.543 264.131 158.48 263.84 158.295 266.211C158.221 267.219 157.971 268.247 157.896 269.255C157.816 270.406 157.631 271.396 158.62 272.16C158.831 272.313 159.131 272.53 159.11 272.848C159.081 273.247 158.883 273.486 158.419 273.446C156.121 273.278 155.999 270.956 156.123 269.231C156.194 268.332 156.979 265.864 155.797 265.774C152.174 265.511 148.482 265.173 144.86 265.232C144.358 265.227 143.845 265.374 143.338 265.34C142.939 265.311 142.558 265.208 142.585 264.709C142.677 263.455 148.704 263.927 149.749 263.967C149.807 262.676 149.942 261.379 150.072 260.091C146.903 259.934 143.61 259.589 140.458 259.715C139.949 259.754 139.432 259.923 138.933 259.896C138.498 259.865 138.158 259.619 138.198 259.154C138.268 258.255 139.452 258.309 140.099 258.283C145.452 258.169 150.967 258.751 156.314 259.138C157.466 259.219 164.68 259.278 164.541 261.176L164.555 261.174ZM152.179 256.086C151.667 256.197 150.82 256.855 150.574 256.838C150.43 256.832 150.294 256.746 150.195 256.662L149.965 255.854C146.585 255.1 144.658 252.868 144.916 249.389C145.18 245.729 148.606 244.32 151.873 244.547C155.568 244.813 158.473 246.581 158.178 250.675C157.928 254.16 155.2 255.407 152.193 256.083L152.179 256.086ZM151.81 246.205C149.006 246.003 146.968 246.825 146.743 249.883C146.482 253.434 148.66 253.306 150.865 254.728C153.612 254.173 156.063 253.736 156.306 250.431C156.518 247.561 154.361 246.396 151.81 246.205Z" fill="white"/>
<path d="M133.378 243.414C132.848 244.795 132.28 246.075 131.917 247.516C132.274 247.774 133.029 248.641 132.838 249.144C132.705 249.48 132.261 249.344 132.041 249.222C130.352 248.383 128.721 247.635 126.973 246.963C124.722 246.1 122.407 245.29 120.097 244.594C119.51 245.712 119.102 246.874 118.616 248.04L127.913 251.346C128.67 251.597 131.032 252.664 130.607 253.763C130.475 254.1 130.001 253.954 129.772 253.826C128.006 252.992 126.258 252.32 124.449 251.63L123.238 254.789C124.414 255.245 135.178 258.637 134.417 260.628C134.285 260.965 133.802 260.813 133.582 260.691C130.99 259.31 128.387 258.266 125.624 257.206C121.152 255.489 116.435 253.411 111.8 252.243C111.302 252.13 110.745 252.183 110.272 252.001C109.867 251.844 109.623 251.483 109.789 251.048C110.396 249.475 120.206 253.658 121.412 254.123L122.624 250.963C121.379 250.483 119.782 249.722 118.483 249.487C118.238 249.433 117.124 249.318 116.955 249.245C116.413 249.039 116.438 248.39 116.605 247.955C117.085 246.711 117.683 245.44 118.247 244.268C117.842 244.111 117.613 243.711 117.764 243.314C118.088 242.475 119.22 242.837 119.846 243.03C123.342 244.066 126.838 245.409 130.265 246.728C130.639 245.444 131.12 244.199 131.693 242.997C131.732 242.704 131.079 242.293 130.873 242.219C127.514 240.925 124.042 239.635 120.581 238.687C120.098 238.535 119.56 238.528 119.086 238.347C118.72 238.205 118.378 237.995 118.554 237.53C119.069 236.187 128.449 239.787 129.929 240.351C131.272 240.866 134.133 241.466 133.378 243.414ZM125.113 270.437C121.886 269.201 124.423 264.618 124.983 262.444C125.106 261.916 124.641 261.74 124.236 261.583C121.443 260.513 118.489 259.376 115.568 258.757C114.496 260.734 113.637 262.877 112.755 264.966L120.23 267.497C120.986 267.748 123.34 268.846 122.909 269.953C122.777 270.29 122.294 270.138 122.074 270.016C121.434 269.689 120.737 269.271 120.072 269.012C117.782 268.134 115.053 266.925 112.654 266.436C112.225 266.348 111.54 266.322 111.135 266.165C110.594 265.958 110.58 265.294 110.747 264.859C111.227 263.615 114.081 256.188 115.585 256.77C115.853 256.877 115.999 257.205 116.005 257.469C116.835 257.909 122.943 259.599 124.752 260.29C128.652 261.79 125.895 263.931 125.391 267.17C125.208 268.259 125.939 269.961 125.841 270.198C125.725 270.496 125.362 270.555 125.094 270.447L125.113 270.437Z" fill="white"/>
<path d="M93.5127 225.996C98.4647 229.182 103.134 233.152 107.753 236.764C108.638 237.453 113.297 240.601 112.185 242.018C111.966 242.304 111.541 242.022 111.368 241.835C109.35 239.795 107.197 238.114 104.928 236.337L102.316 234.3C101.52 235.144 100.782 236.029 100.099 236.905C99.5704 237.584 99.084 238.257 98.6057 238.935C99.4808 239.568 102.234 241.597 102.694 242.361C103.295 243.339 98.2919 249.334 97.5649 250.783C97.0638 251.766 97.2747 253.659 97.1867 253.78C96.9677 254.066 96.6074 254.052 96.3215 253.833C94.0848 252.08 96.3666 249.164 97.527 247.559C94.7186 245.368 91.8426 243.201 88.9206 241.149C88.1241 242.165 87.3217 243.189 86.6085 244.278C85.5373 245.947 86.6335 246.53 86.2459 247.015C85.9542 247.384 85.692 247.49 85.2928 247.189C83.2527 245.59 85.096 243.11 86.2311 241.66C87.0745 240.579 91.8611 233.995 93.2138 235.06C93.3596 235.166 93.3958 235.525 93.3881 235.655C94.7047 236.138 95.7765 236.926 96.8983 237.713C98.1145 236.099 99.3249 234.494 100.631 232.995C98.1427 231.146 95.6504 228.961 92.9988 227.389C92.5562 227.13 92.0024 227.026 91.6089 226.717C91.2907 226.474 91.141 226.033 91.4011 225.69C91.9785 224.96 92.9104 225.634 93.4848 226L93.5127 225.996ZM100.325 242.018C97.892 240.11 95.4044 238.311 92.6392 236.878C92.1186 237.427 91.7301 237.862 91.2595 238.411L89.8221 240.074C92.7207 242.158 95.5201 244.294 98.3952 246.41C99.0692 245.478 101.597 243.024 100.325 242.018Z" fill="white"/>
<path d="M90.9958 224.817C90.6993 225.023 90.3785 224.63 90.2706 224.404C88.9005 221.759 87.2785 219.463 85.5804 217.05L83.7798 214.489C82.9237 214.956 82.0937 215.54 81.3034 216.104L80.3567 216.765C81.5162 219.035 81.2903 222.043 79.0909 223.6C76.7609 225.234 73.858 224.862 71.7073 223.109C71.4634 222.884 71.2401 222.697 70.9502 222.586C70.8345 222.49 70.4883 222.252 70.4307 222.161C70.2647 221.93 70.3676 221.634 70.5546 221.461L71.0047 221.231C70.0331 218.838 70.3069 216.173 72.554 214.601C74.6448 213.127 77.286 213.519 79.1395 215.205C80.2651 214.366 81.3988 213.532 82.6086 212.815C80.7692 210.324 78.9885 207.531 76.8967 205.253C76.5502 204.879 76.0811 204.589 75.794 204.184C75.5438 203.83 75.5126 203.413 75.8979 203.136C76.6648 202.604 77.323 203.537 77.7721 204.059C81.2341 208.18 84.284 212.768 87.3665 217.157C88.027 218.104 92.5531 223.722 90.9958 224.817ZM72.8944 230.546C72.2549 229.195 71.698 228.224 70.8507 227.007C69.2161 224.677 67.6141 222.148 65.7167 220.011C65.3068 219.554 64.7098 219.27 64.357 218.768C64.1068 218.414 64.1594 217.983 64.5131 217.733C65.2462 217.214 65.9455 218.09 66.3748 218.623C68.6833 221.404 70.7971 224.487 72.8744 227.434C73.3032 228.052 74.6038 230.264 73.6255 230.951C73.329 231.157 73.0082 230.764 72.9002 230.538L72.8944 230.546ZM78.7869 217.024C77.4025 215.047 75.4107 214.73 73.4425 216.12C70.6501 218.087 72.914 220.366 72.3204 221.665C74.2962 222.909 75.94 223.69 78.0961 222.177C79.8589 220.934 79.9662 218.704 78.7869 217.024ZM67.6065 229.905C67.3113 229.495 66.7191 226.832 65.6424 225.301C65.1421 224.593 64.4628 224.065 63.989 223.389C63.7389 223.035 63.7914 222.604 64.1451 222.354C64.9039 221.817 66.6604 224.371 67.0316 224.899C67.7556 225.928 69.8249 228.869 68.2933 229.946C68.0878 230.093 67.7725 230.137 67.6065 229.905Z" fill="white"/>
<path d="M69.4348 203.472C69.1623 203.558 67.4745 202.547 67.0815 202.374C63.5453 200.779 59.1415 200.828 55.503 201.985C54.9579 202.158 53.117 203.048 52.8375 202.155C52.4757 201.017 53.5507 200.486 54.4102 200.219C55.8207 199.771 57.3013 199.447 58.7772 199.318C60.9348 196.966 63.0626 194.741 63.6629 191.522C63.7406 191.158 63.8819 190.656 64.2792 190.499C64.6909 190.476 64.8811 190.947 64.962 191.227C65.8819 194.102 62.9856 197.338 61.1702 199.234C63.3562 199.334 68.9517 200.642 69.6923 202.979C69.7791 203.252 69.6736 203.397 69.4348 203.472ZM69.5091 195.059C68.6188 192.28 72.6689 191.1 74.5569 190.503C75.6529 190.148 77.3656 190.288 76.8793 188.776C75.8533 185.554 74.8359 182.251 73.5293 179.109C73.3391 178.638 73.0137 178.218 72.8655 177.74C72.7535 177.4 72.698 176.965 73.1336 176.824C74.5778 176.362 77.1251 184.956 77.5417 186.257C78.0154 187.735 79.6329 190.805 77.5481 191.469C75.7637 192.042 73.8228 192.354 72.2094 193.322C71.6331 193.658 70.9527 194.104 70.778 194.755C70.7103 195.002 70.6663 195.353 70.36 195.452C69.9442 195.584 69.6565 195.487 69.5068 195.045L69.5091 195.059ZM57.5888 195.842C57.4324 195.358 57.4891 194.819 57.3327 194.336C56.9287 193.069 56.3071 191.829 55.7319 190.611C54.1989 191.144 52.5709 191.62 51.0815 192.246C49.1831 193.045 49.9973 195.127 49.1378 195.394C48.7639 195.519 48.4701 195.072 48.3708 194.765C47.7978 192.981 48.9495 190.877 50.6604 190.337L53.0236 189.578L57.7329 187.998L60.0961 187.239C61.0232 186.947 67.0435 184.834 67.4349 186.068C67.6403 186.722 64.9077 187.634 64.464 187.769C62.0251 188.548 59.5457 189.297 57.1194 190.109C57.6753 191.252 58.2717 192.423 58.6586 193.629C58.9144 194.419 58.9616 195.872 58.2374 196.447C57.8554 196.565 57.6733 196.1 57.5866 195.828L57.5888 195.842ZM45.4114 189.404C44.8214 187.558 46.0393 185.464 47.8236 184.891L55.3245 182.455C57.831 181.651 60.3821 180.769 62.9375 180.137C63.3997 180.027 66.0653 179.634 66.2639 180.247C66.4693 180.902 63.7367 181.813 63.3267 181.936C58.2859 183.548 52.958 184.754 48.1132 186.829C46.1855 187.668 47.0966 189.685 46.2033 189.964C45.8294 190.089 45.5085 189.696 45.4092 189.39L45.4114 189.404Z" fill="white"/>
<path d="M50.9921 171.978C51.0121 169.204 54.2488 169.336 56.158 169.272C56.1032 167.147 55.8997 164.988 55.6589 162.864C55.5864 162.145 55.2352 161.385 55.2407 160.661C55.2473 160.123 55.5357 159.912 56.0437 159.909C57.2341 159.918 57.5699 167.986 57.6344 169.279C59.7223 169.259 61.8075 169.311 63.8959 169.426C63.6992 166.507 62.9989 163.261 62.2275 160.42C62.019 159.701 61.2652 158.218 61.2747 157.608C61.2815 157.428 61.3493 157.181 61.5632 157.175C63.6138 157.189 65.3851 167.64 65.3705 169.333C65.3679 169.763 65.0381 171.277 64.4639 171.269C62.5574 171.26 60.6137 171.064 58.7073 171.055C57.1949 171.047 55.6839 171.003 54.1706 171.167C52.1117 171.369 52.251 172.593 51.6407 172.583C51.2466 172.582 50.9941 172.436 50.998 171.97L50.9921 171.978ZM69.8079 152.413C65.8869 152.391 61.9608 152.069 58.0038 152.046L56.1253 152.032C56.3647 153.613 56.6469 155.236 56.6363 156.82C56.6326 157.645 56.2929 159.053 55.4343 159.37C55.0416 159.332 55.0095 158.865 55.0065 158.579C55.0239 156.234 54.9675 154.367 54.6129 152.025C51.6647 152.04 48.5626 151.944 45.6156 152.145C43.5596 152.274 43.7603 154.505 42.828 154.497C42.4699 154.497 42.2563 154.059 42.2547 153.737C42.2664 151.759 44.0848 150.149 45.9494 150.165L59.9164 150.22C63.2654 150.248 66.6468 150.3 69.992 150.572C70.4568 150.612 73.1583 151.023 73.1556 151.675C73.1502 152.399 70.266 152.411 69.7998 152.408L69.8079 152.413ZM48.3926 173.184C48.5449 171.813 48.662 170.491 48.6702 169.114C48.6875 166.77 48.5284 164.396 48.3223 162.087C48.2499 161.368 48.0054 160.648 48.0108 159.924C48.012 159.53 48.2712 159.138 48.7013 159.14C49.5976 159.147 49.7035 160.297 49.7355 160.987C49.9283 164.15 50.122 167.363 50.1009 170.532C50.0986 171.32 49.9716 173.918 48.7452 173.908C48.3872 173.908 48.347 173.434 48.3926 173.184Z" fill="white"/>
<path d="M63.7724 127.672C62.77 126.947 61.3696 127.172 60.6446 128.175C59.9196 129.177 60.1445 130.577 61.1469 131.302C62.1493 132.027 63.5497 131.803 64.2747 130.8C64.9997 129.798 64.7748 128.397 63.7724 127.672Z" fill="white"/>
<path d="M181.162 258.45C180.16 257.725 178.76 257.95 178.035 258.952C177.31 259.954 177.534 261.355 178.537 262.08C179.539 262.805 180.94 262.58 181.665 261.578C182.39 260.575 182.165 259.175 181.162 258.45Z" fill="white"/>
<path d="M237.8 92.1275C236.798 91.4025 235.398 91.6274 234.673 92.6298C233.948 93.6322 234.173 95.0326 235.175 95.7576C236.177 96.4826 237.578 96.2577 238.303 95.2553C239.028 94.2529 238.803 92.8525 237.8 92.1275Z" fill="white"/>
</g>
<defs>
<clipPath id="clip0_134_49">
<rect width="228.47" height="229.3" fill="white" transform="translate(185.124 319.69) rotate(-144.123)"/>
</clipPath>
</defs>
</svg>
