<svg width="177" height="61" viewBox="0 0 177 61" fill="none" xmlns="http://www.w3.org/2000/svg">
<g clip-path="url(#clip0_25_1179)">
<path d="M26.6553 4.33493C27.8908 4.801 29.027 5.62288 30.0542 6.91585C31.9198 9.27126 32.5549 12.5488 31.7164 15.4755C31.6717 15.6359 31.6122 15.7862 31.5576 15.9366L35.0905 15.9115C35.0905 15.9115 40.0871 15.5457 41.1092 13.5611C42.1314 11.5765 42.7268 11.7519 41.1092 9.2011C39.4916 6.65024 35.6313 6.44978 35.6313 6.44978C35.6313 6.44978 32.3416 3.87387 28.3373 2.88159C27.7122 3.31258 27.1515 3.80371 26.6602 4.33493H26.6553ZM37.7848 8.45939C38.2611 8.45939 38.6481 8.85029 38.6481 9.33139C38.6481 9.8125 38.2611 10.2034 37.7848 10.2034C37.3084 10.2034 36.9214 9.8125 36.9214 9.33139C36.9214 8.85029 37.3084 8.45939 37.7848 8.45939Z" fill="#DDAD6D"/>
<path d="M23.7326 16.7034C26.923 15.6409 29.3296 15.9517 29.3296 15.9517L30.5006 15.9416C30.5998 15.7011 30.6841 15.4505 30.7586 15.1899C31.4979 12.614 30.9174 9.61211 29.275 7.53734C28.2925 6.29449 27.2059 5.52773 25.9604 5.14185C23.8318 7.8681 23.0776 11.0955 22.9883 11.5115C22.9932 12.614 23.1619 14.8692 23.7375 16.6984L23.7326 16.7034Z" fill="#DDAD6D"/>
<path d="M10.7176 51.9542L10.3852 51.4931C7.09547 46.9427 2.12367 40.0619 3.72139 28.8913C5.6069 15.7461 9.58633 7.97828 15.5555 5.79828C19.2421 4.45019 22.646 3.40278 25.5735 4.0192C26.0002 3.52306 26.4815 3.05198 27.0075 2.61598C26.1243 2.48568 25.2212 2.4506 24.3231 2.55083C18.7708 3.16724 13.8982 2.68614 7.80998 9.59199C1.71679 16.4978 0.158766 27.7787 0.158766 27.7787C0.158766 27.7787 -0.719486 38.0423 1.64733 43.575C4.01414 49.1077 7.39814 52.1847 7.39814 52.1847L11.6604 55.0563C11.6604 55.0563 12.881 55.6677 14.7268 55.5575C12.9852 54.3898 11.5711 53.152 10.7127 51.9592L10.7176 51.9542Z" fill="#DDAD6D"/>
<path d="M22.0059 11.366C22.0506 11.1505 22.7204 7.85292 24.8689 4.90616C22.5368 4.60046 19.6589 5.36221 15.8929 6.74037C10.3753 8.75499 6.50998 16.4677 4.70882 29.0365C3.16568 39.8012 7.99358 46.4866 11.189 50.9067L11.5215 51.3678C12.4593 52.6708 14.1463 54.054 16.2253 55.3169C17.2524 55.0462 18.3937 54.53 19.5845 53.618C23.8468 50.3354 23.6433 50.6311 23.8468 44.5371C24.0502 38.4431 16.5379 29.6179 16.5379 29.6179C16.5379 29.6179 13.4913 23.4688 18.7708 19.3694C20.1452 18.3019 21.5197 17.5602 22.7998 17.044C22.0059 14.5733 21.991 11.6466 21.991 11.4662C21.991 11.4361 21.991 11.4011 22.001 11.371L22.0059 11.366Z" fill="#DDAD6D"/>
<path d="M56.7837 36.9097C56.868 34.5493 56.3073 32.249 55.5085 30.2043C54.6253 29.4576 52.6008 28.0243 49.5145 27.438L48.6611 29.3123C48.6065 29.4376 48.4974 29.5328 48.3683 29.5779C48.2393 29.623 48.1004 29.613 47.9764 29.5478C45.9718 28.4854 43.992 28.3551 42.3297 28.5856C41.3225 29.2722 40.4542 30.2795 40.2309 31.7679C39.6255 35.8072 43.8977 37.6163 43.8977 37.6163C43.8977 37.6163 49.5096 38.6738 50.3531 40.523C50.7054 41.2948 51.0726 42.242 51.2562 43.3696C51.4348 43.1691 51.7424 43.144 51.9459 43.3244C52.1543 43.5049 52.1741 43.8206 51.9955 44.0311C51.9856 44.0411 51.7623 44.2917 51.3653 44.6174C51.3901 45.9254 51.1321 47.4339 50.3481 49.1328C49.197 51.6335 48.5718 54.1393 48.2741 55.6177C48.8496 55.1817 49.4302 54.7006 50.0355 54.1593C56.3669 48.4312 56.5009 44.5823 56.7738 36.9097H56.7837ZM48.5122 35.5967C48.0359 35.5967 47.6489 35.2058 47.6489 34.7247C47.6489 34.2436 48.0359 33.8527 48.5122 33.8527C48.9886 33.8527 49.3756 34.2436 49.3756 34.7247C49.3756 35.2058 48.9886 35.5967 48.5122 35.5967Z" fill="#9E9B98"/>
<path d="M48.4925 27.2826C47.778 27.1974 47.0188 27.1623 46.2101 27.1874C46.2101 27.1874 45.5501 27.2525 44.6719 27.5131C45.7238 27.6184 46.8402 27.894 47.9715 28.4252L48.4925 27.2826Z" fill="#9E9B98"/>
<path d="M57.7761 36.9148C57.5032 44.6526 57.3544 48.8923 50.7054 54.9061C49.8322 55.6979 48.9936 56.3544 48.1699 56.9308L51.549 56.2642C51.549 56.2642 56.6845 54.405 58.7139 45.72C59.9643 40.3828 58.6544 35.9276 57.4635 33.2815C57.6967 34.4542 57.8158 35.672 57.7711 36.9148H57.7761Z" fill="#9E9B98"/>
<path d="M57.7761 36.9147C57.8207 35.6719 57.7016 34.4541 57.4684 33.2814C56.2528 27.1022 51.9111 22.1759 51.6928 21.9303C51.5837 21.8051 51.415 21.7449 51.2512 21.77C51.0875 21.795 50.9436 21.9003 50.8741 22.0556L48.4924 27.2826L47.9714 28.4252C46.8351 27.894 45.7237 27.6184 44.6718 27.5132C41.5359 27.2024 38.9259 28.4303 37.869 29.0266L34.7182 22.0556C34.6389 21.8752 34.4602 21.765 34.2667 21.765H34.2568C34.0583 21.765 33.8846 21.8903 33.8053 22.0707L30.6942 29.5478C30.59 29.8034 30.709 30.0991 30.9571 30.2043C31.2102 30.3096 31.498 30.1943 31.6071 29.9387L34.2816 23.514L37.1942 29.9538C37.2538 30.0891 37.3728 30.1893 37.5118 30.2294C37.6507 30.2695 37.8045 30.2444 37.9236 30.1642C37.9534 30.1442 39.7694 28.9364 42.3248 28.5856C43.992 28.3551 45.9668 28.4854 47.9714 29.5478C48.0905 29.613 48.2344 29.623 48.3634 29.5779C48.4924 29.5328 48.5966 29.4376 48.6561 29.3123L49.5096 27.438L51.4398 23.1932C52.3279 24.3158 54.2234 26.9318 55.5035 30.2043C56.3024 32.249 56.8631 34.5493 56.7787 36.9097C56.5058 44.5773 56.3719 48.4312 50.0405 54.1593C49.4401 54.7056 48.8546 55.1867 48.279 55.6177C43.9275 58.9152 40.3103 59.2109 35.8793 59.5717C34.7431 59.6619 33.5621 59.7622 32.3117 59.9125C27.6773 60.4738 20.9391 58.1886 16.2253 55.317C14.1463 54.0491 12.4593 52.6709 11.5215 51.3679L11.189 50.9068C7.99359 46.4867 3.16568 39.8064 4.70882 29.0367C6.50998 16.4678 10.3753 8.7551 15.8929 6.74048C19.659 5.36232 22.5368 4.60558 24.8689 4.90627C22.7204 7.85303 22.0506 11.1506 22.0059 11.3661C22.001 11.3962 21.996 11.4312 21.996 11.4613C21.996 11.6417 22.0109 14.5735 22.8048 17.0391C23.1918 18.2469 23.7624 19.3444 24.6109 19.9558C25.4048 20.5321 26.3426 20.6374 27.3896 20.2715C29.3545 19.59 30.8132 18.0514 31.5526 15.9266C31.6071 15.7712 31.6667 15.6259 31.7113 15.4655C32.5549 12.5438 31.9148 9.26126 30.0491 6.90586C29.022 5.61289 27.8857 4.791 26.6502 4.32493C27.1464 3.79372 27.7071 3.30259 28.3273 2.8716C29.0419 2.37546 29.8407 1.96452 30.7438 1.67886C37.2488 -0.370843 39.6652 2.60599 41.4168 5.55776C43.3966 8.89542 44.4832 11.7369 44.4931 11.767C44.5576 11.9374 44.7065 12.0577 44.8851 12.0827C44.9099 12.0827 46.9046 12.3884 48.4031 13.4208H49.6932C49.7924 13.4208 49.8768 13.4759 49.9165 13.5661C49.9562 13.6564 49.9413 13.7616 49.8817 13.8318L49.4252 14.373C49.5245 14.5033 49.6138 14.6386 49.6882 14.7839C50.2142 15.7612 50.1546 16.9589 49.5146 18.3471C48.9142 19.6501 48.0806 20.4169 47.0336 20.6374C44.4386 21.1736 41.258 18.3471 41.2282 18.3221C41.0248 18.1366 40.7072 18.1567 40.5286 18.3622C40.345 18.5676 40.3649 18.8833 40.5683 19.0688C40.7122 19.1991 44.1508 22.2611 47.2321 21.6196C48.6065 21.334 49.6783 20.3768 50.4176 18.7681C51.1966 17.0742 51.2463 15.5707 50.5615 14.3028C49.3607 12.0777 46.2844 11.326 45.3168 11.1406C44.9992 10.3437 43.9672 7.89814 42.2702 5.04158C40.1763 1.51849 37.2984 -1.43829 30.451 0.721665C29.1113 1.14263 27.9701 1.80916 27.0075 2.60599C26.4815 3.04199 26.0002 3.51307 25.5735 4.00921C22.646 3.3928 19.2422 4.4402 15.5555 5.78829C9.58635 7.97832 5.60692 15.7461 3.72637 28.8913C2.12865 40.062 7.10045 46.9427 10.3902 51.4932L10.7226 51.9543C11.581 53.147 12.9952 54.3898 14.7368 55.5525C19.1628 58.5143 25.7224 61 30.8132 61C31.3739 61 31.9197 60.9699 32.4358 60.9048C33.6713 60.7544 34.8373 60.6592 35.9686 60.569C40.1664 60.2282 43.8828 59.9175 48.1748 56.9257C48.9985 56.3543 49.8371 55.6928 50.7104 54.901C57.3543 48.8872 57.5081 44.6475 57.781 36.9097L57.7761 36.9147ZM25.9605 5.14682C27.2109 5.53271 28.2976 6.29947 29.2751 7.54232C30.9174 9.61708 31.498 12.619 30.7587 15.1949C30.6842 15.4555 30.5949 15.7061 30.5007 15.9466C29.8308 17.6004 28.63 18.7931 27.067 19.3344C26.3277 19.59 25.7124 19.5298 25.1865 19.149C24.5315 18.6779 24.0651 17.7608 23.7376 16.7033C23.162 14.8741 22.9933 12.619 22.9884 11.5164C23.0777 11.0955 23.8319 7.86807 25.9605 5.14682Z" fill="white"/>
<path d="M52.0054 44.0259C52.1841 43.8154 52.1593 43.4997 51.9558 43.3193C51.7524 43.1389 51.4447 43.1639 51.2661 43.3644C51.2661 43.3644 51.2612 43.3644 51.2562 43.3694C51.1272 43.5198 48.0707 46.9727 43.8382 43.7503V42.3872L43.7687 42.4473C43.6745 42.5275 43.5603 42.5676 43.4512 42.5676C43.347 42.5676 43.2428 42.5375 43.1584 42.4673L42.8508 42.2368V43.7703C39.2485 46.7371 35.9736 43.7653 35.8347 43.635C35.6362 43.4446 35.3187 43.4596 35.1351 43.6601C34.9465 43.8656 34.9614 44.1813 35.1599 44.3667C35.1896 44.3918 37.0255 46.0756 39.5313 46.0756C40.7023 46.0756 42.0172 45.6998 43.3619 44.6323C44.8455 45.7298 46.2199 46.1257 47.4107 46.1257C49.2268 46.1257 50.631 45.2337 51.3852 44.6123C51.7822 44.2865 52.0054 44.0359 52.0154 44.0259H52.0054Z" fill="white"/>
<path d="M43.4462 42.5676C43.5603 42.5676 43.6744 42.5275 43.7637 42.4473L43.8332 42.3872L45.4905 40.9789C45.6493 40.8436 45.7088 40.6181 45.6344 40.4227C45.5599 40.2272 45.3764 40.0969 45.168 40.0969L41.5011 40.122C41.2878 40.122 41.0992 40.2623 41.0347 40.4678C40.9702 40.6732 41.0397 40.8988 41.2133 41.0241L42.8458 42.2418L43.1534 42.4724C43.2427 42.5375 43.3469 42.5726 43.4462 42.5726V42.5676Z" fill="white"/>
<path d="M38.6481 34.7248C38.6481 34.2437 38.2611 33.8528 37.7848 33.8528C37.3084 33.8528 36.9214 34.2437 36.9214 34.7248C36.9214 35.2059 37.3084 35.5968 37.7848 35.5968C38.2611 35.5968 38.6481 35.2059 38.6481 34.7248Z" fill="white"/>
<path d="M37.7848 10.1983C38.2611 10.1983 38.6481 9.80745 38.6481 9.32635C38.6481 8.84524 38.2611 8.45435 37.7848 8.45435C37.3084 8.45435 36.9214 8.84524 36.9214 9.32635C36.9214 9.80745 37.3084 10.1983 37.7848 10.1983Z" fill="white"/>
<path d="M48.5123 33.8528C48.036 33.8528 47.6489 34.2437 47.6489 34.7248C47.6489 35.2059 48.036 35.5968 48.5123 35.5968C48.9886 35.5968 49.3757 35.2059 49.3757 34.7248C49.3757 34.2437 48.9886 33.8528 48.5123 33.8528Z" fill="white"/>
<path d="M49.9265 13.5811C49.8868 13.4909 49.7975 13.4358 49.7032 13.4358H45.6444C45.5451 13.4358 45.4608 13.4909 45.4211 13.5811C45.3814 13.6713 45.3963 13.7766 45.4558 13.8467L47.4852 16.2372C47.5348 16.2923 47.5993 16.3224 47.6738 16.3224C47.7482 16.3224 47.8127 16.2923 47.8623 16.2372L49.4352 14.383L49.8917 13.8417C49.9562 13.7666 49.9711 13.6613 49.9265 13.5761V13.5811Z" fill="white"/>
<path d="M82.64 29.7382L76.4327 29.7883C76.4625 28.9263 76.4823 28.1044 76.4823 27.3227C78.3182 27.2926 79.5438 27.2725 80.1541 27.2725C80.3476 26.8967 80.4667 26.5008 80.5163 26.0748C80.5461 25.8793 80.4766 25.7841 80.298 25.7841L71.9869 25.9044C72.0514 23.564 72.0762 22.1057 72.0613 21.5394C74.6861 21.4592 76.8991 21.4191 78.7053 21.4191C79.0575 21.4191 79.3701 21.389 79.6331 21.3339C79.9011 21.2788 80.04 21.1986 80.0549 21.1034L80.1492 20.4218C80.164 20.2614 80.1144 20.1512 80.0053 20.0911C79.8911 20.0359 79.7076 20.0059 79.4495 20.0059L69.3521 20.1261C68.722 20.1612 68.2903 20.2364 68.0471 20.3567C67.804 20.4769 67.6353 20.6774 67.541 20.953C67.5063 21.0031 67.4914 21.0683 67.4914 21.1485C67.4914 21.4241 67.8933 21.5644 68.6972 21.5644C68.6624 22.672 68.6475 23.5991 68.6475 24.3458C68.6475 25.4032 68.6624 26.2352 68.6972 26.8365C68.712 27.047 68.7865 27.1823 68.9155 27.2375C69.0445 27.2926 69.2777 27.3477 69.6151 27.3978H73.2373L73.2125 29.8134L67.8983 29.8635C67.5609 29.8635 67.3078 29.9286 67.149 30.0589C66.9853 30.1892 66.8613 30.3346 66.762 30.4999C66.7273 30.6302 66.7124 30.7205 66.7124 30.7706C66.7124 31.0813 66.9555 31.2366 67.4368 31.2366C73.9915 31.2366 78.8789 31.1865 82.0992 31.0913C82.4713 31.0913 82.7045 30.9861 82.7988 30.7756C82.8931 30.5651 82.9427 30.2895 82.9427 29.9437C82.9427 29.8635 82.9228 29.8084 82.8832 29.7833C82.8435 29.7582 82.7591 29.7482 82.6301 29.7482L82.64 29.7382Z" fill="white"/>
<path d="M76.0954 32.4995C73.937 32.4995 72.2748 32.7902 71.1087 33.3665C69.9427 33.9428 69.3572 34.9802 69.3572 36.4786C69.3572 37.8117 69.8087 38.7338 70.7118 39.25C71.6148 39.7612 73.0042 40.0168 74.8897 40.0168C76.4527 40.0168 77.6584 39.8965 78.5118 39.6609C79.3653 39.4254 79.9756 39.0245 80.3378 38.4532C80.7 37.8819 80.8836 37.08 80.8836 36.0376C80.8836 35.1757 80.5512 34.3688 79.8912 33.6221C79.2313 32.8754 77.966 32.4995 76.1004 32.4995H76.0954ZM77.063 38.2176C76.7256 38.5334 76.1599 38.6937 75.371 38.6937C74.4679 38.6937 73.808 38.5233 73.3912 38.1826C72.9744 37.8418 72.761 37.2003 72.761 36.2531C72.761 35.6016 72.9496 35.0554 73.3267 34.6194C73.7038 34.1784 74.329 33.9629 75.1973 33.9629C75.9862 33.9629 76.5767 34.1383 76.9737 34.4891C77.3656 34.8399 77.5641 35.4763 77.5641 36.4035C77.5641 37.3306 77.3954 37.9019 77.058 38.2226L77.063 38.2176Z" fill="white"/>
<path d="M87.8699 26.6562C88.0088 26.7113 88.242 26.7664 88.5844 26.8165C90.2912 26.8817 91.6607 26.9168 92.6928 26.9168C95.3672 26.9168 97.5654 26.8366 99.2871 26.6712C99.5104 26.6712 99.6245 26.4357 99.6245 25.9646C99.6245 23.1982 99.6543 21.4342 99.7188 20.6724C99.6245 20.4469 99.5005 20.2966 99.3566 20.2314C99.2276 20.2013 98.9845 20.1813 98.6322 20.1813C97.5356 20.1813 95.7791 20.2615 93.3676 20.4269C92.0329 20.507 91.1794 20.5471 90.8073 20.5471C90.8073 20.5171 90.7924 20.3868 90.7577 20.1713C90.7229 19.9508 90.6684 19.8255 90.589 19.7954C90.2168 19.7954 89.6809 19.9057 88.9813 20.1262C88.2817 20.3467 87.7756 20.5371 87.4729 20.6975L87.6416 26.2602C87.6565 26.4707 87.7359 26.606 87.8699 26.6612V26.6562ZM93.0501 21.6898C95.1936 21.5444 96.2852 21.4693 96.3348 21.4693L96.2852 25.4233H90.9214L90.8023 21.8351L93.0501 21.6898Z" fill="white"/>
<path d="M101.192 28.0795L86.4557 28.1998C85.9247 28.1998 85.5476 28.4203 85.3194 28.8563C85.2847 28.9866 85.2698 29.0768 85.2698 29.1269C85.2698 29.4376 85.5129 29.593 85.9942 29.593C88.3759 29.593 90.2515 29.5779 91.621 29.5428L91.5962 31.347V31.4673C90.6137 31.4673 89.8148 31.4823 89.2045 31.5174C88.753 31.5174 88.4007 31.5374 88.1427 31.5775C87.8847 31.6176 87.7457 31.7028 87.7309 31.8331C87.7309 31.9283 87.7557 32.0085 87.8053 32.0636C87.8549 32.1188 87.9641 32.1989 88.1427 32.2942C88.3213 32.4094 88.6835 32.5297 89.2293 32.66C89.8397 32.6299 91.1446 32.6099 93.1443 32.6099L95.5111 32.5848L95.5607 34.7298L89.4229 34.7799C88.7778 34.8149 88.3313 34.8901 88.0832 35.0104C87.8351 35.1307 87.6614 35.3211 87.5622 35.5817C87.448 35.8122 87.5026 35.9676 87.7209 36.0578C87.9393 36.148 88.2171 36.1931 88.5545 36.1931C88.5198 36.6642 88.5397 37.5362 88.6042 38.8041L88.629 39.4606C88.6438 39.6711 88.7282 39.8114 88.882 39.8766C89.0358 39.9417 89.2641 39.9918 89.5717 40.0219H90.6088C91.6557 40.0219 92.6084 40.0119 93.4718 39.9968C94.3351 39.9818 95.0645 39.9618 95.6599 39.9467C97.2378 39.8966 98.6222 39.8716 99.813 39.8716C99.942 39.6611 100.036 39.4756 100.091 39.3253C100.145 39.1699 100.19 38.9795 100.225 38.754C100.255 38.5585 100.185 38.4633 100.007 38.4633L91.9385 38.5385L91.9882 36.8296V36.1731L93.9927 36.148C94.4443 36.133 95.1141 36.1229 95.9973 36.1229H96.6275L98.6569 36.0979C98.9 36.0979 99.0191 35.8624 99.0191 35.3913C99.0489 34.7899 99.0687 34.0732 99.0687 33.2463C99.0687 32.5497 99.0539 32.0286 99.0191 31.6828C98.9249 31.5023 98.776 31.357 98.5825 31.2417C98.26 31.2417 97.8878 31.2919 97.471 31.3871L94.9355 31.4121C94.9504 30.9561 94.9603 30.3246 94.9603 29.5078C97.1684 29.5078 99.0687 29.4827 100.662 29.4326C101.034 29.4326 101.267 29.3274 101.361 29.1169C101.455 28.9064 101.505 28.6308 101.505 28.285C101.505 28.2048 101.485 28.1446 101.445 28.1146C101.406 28.0845 101.321 28.0645 101.192 28.0645V28.0795Z" fill="white"/>
<path d="M119.139 36.8646L113.632 36.8897L113.607 32.229C114.009 32.229 114.317 32.2189 114.525 32.2039C114.589 32.3643 114.674 32.4845 114.778 32.5597C114.882 32.6349 115.001 32.665 115.14 32.6549C115.279 32.6449 115.363 32.6449 115.393 32.6449C115.602 32.6299 115.785 32.6249 115.934 32.6349C116.088 32.6449 116.212 32.6449 116.306 32.6449C116.693 32.6449 117.001 32.6098 117.234 32.5347C117.467 32.4595 117.666 32.3091 117.825 32.0836C117.825 31.7579 117.874 30.2294 117.968 27.4981C117.983 26.6512 118.013 25.7541 118.053 24.8019C118.093 23.8497 118.122 22.9026 118.137 21.9604C118.102 21.7499 117.998 21.5946 117.825 21.4993L116.544 21.4743C115.612 21.4743 115.006 21.5495 114.733 21.6948L114.634 25.6238H108.933C108.883 23.3486 108.854 22.0706 108.839 21.795C108.759 21.5845 108.645 21.4392 108.501 21.354C108.114 21.354 107.573 21.4542 106.884 21.6597C106.189 21.8652 105.708 22.0456 105.435 22.206C105.549 26.3856 105.668 29.6079 105.797 31.8681C105.812 32.0786 105.891 32.2189 106.025 32.2841C106.164 32.3492 106.392 32.4044 106.715 32.4545H107.658C108.238 32.4545 109.077 32.4394 110.168 32.4044L110.193 36.8947L104.998 36.9197C104.452 36.9197 104.07 37.1302 103.862 37.5562C103.827 37.6865 103.812 37.7867 103.812 37.8469C103.812 38.1576 104.045 38.3079 104.512 38.3079H110.744C114.495 38.3079 117.12 38.2829 118.618 38.2327C118.971 38.2327 119.199 38.1175 119.293 37.892C119.388 37.6664 119.437 37.3908 119.437 37.06C119.437 36.9799 119.412 36.9247 119.363 36.8997C119.313 36.8746 119.234 36.8646 119.12 36.8646H119.139ZM109.092 30.9109L109.017 27.1774L114.599 27.1523L114.505 30.8107L109.092 30.9109Z" fill="white"/>
<path d="M122.98 24.5414C125.684 24.4461 127.689 24.396 128.994 24.396H134.913C135.221 24.396 135.464 24.2758 135.653 24.0302C135.836 23.7846 135.93 23.5441 135.93 23.2985C135.93 23.1532 135.871 23.058 135.747 23.0179C135.628 22.9778 135.469 22.9577 135.275 22.9577L130.879 22.9076L130.954 21.324C130.954 20.7076 130.939 20.2415 130.904 19.9308C130.854 19.7504 130.75 19.595 130.591 19.4697C130.204 19.4697 129.688 19.57 129.043 19.7754C128.398 19.9809 127.942 20.1613 127.669 20.3267L127.594 22.8625C125.902 22.8625 124.414 22.9277 123.124 23.058C122.995 23.073 122.896 23.1682 122.836 23.3386C122.772 23.509 122.737 23.6994 122.737 23.9099C122.737 24.0903 122.762 24.2407 122.811 24.361C122.861 24.4812 122.915 24.5464 122.98 24.5464V24.5414Z" fill="white"/>
<path d="M137.087 37.0099L131.653 37.035L131.579 33.5971C133.722 33.141 134.789 31.9282 134.789 29.9637C134.789 29.0717 134.601 28.2047 134.224 27.3678C133.846 26.5308 133.028 25.9996 131.772 25.7691C130.582 25.5586 129.55 25.4534 128.681 25.4534C128.344 25.4534 128.101 25.4634 127.957 25.4784C127.217 25.5285 126.553 25.7641 125.962 26.185C125.372 26.606 124.915 27.1372 124.583 27.7737C124.25 28.4102 124.086 29.0566 124.086 29.7232C124.086 30.7004 124.434 31.5624 125.124 32.3091C125.818 33.0558 126.82 33.5269 128.145 33.7223V33.7725L128.195 37.04L122.955 37.065C122.409 37.065 122.027 37.2755 121.819 37.7015C121.784 37.8318 121.769 37.932 121.769 37.9921C121.769 38.3029 122.002 38.4532 122.469 38.4532H128.701C132.452 38.4532 135.077 38.4281 136.576 38.378C136.928 38.378 137.156 38.2628 137.25 38.0373C137.345 37.8117 137.394 37.5361 137.394 37.2053C137.394 37.1252 137.369 37.07 137.32 37.045C137.27 37.0199 137.191 37.0099 137.077 37.0099H137.087ZM129.624 32.4995C128.756 32.4995 128.165 32.249 127.862 31.7428C127.56 31.2366 127.406 30.5952 127.406 29.8134C127.406 29.3724 127.505 28.9414 127.709 28.5104C127.912 28.0794 128.165 27.7236 128.468 27.4379C128.775 27.1523 129.088 27.0119 129.411 27.0119C130.056 26.9618 130.562 27.2174 130.934 27.7687C131.306 28.3199 131.49 29.0216 131.49 29.8685C131.49 31.6225 130.869 32.5046 129.629 32.5046L129.624 32.4995Z" fill="white"/>
<path d="M157.718 19.9808C157.267 19.9808 156.79 20.036 156.279 20.1512C155.773 20.2665 155.381 20.4018 155.108 20.5672V26.3254L155.083 32.67C155.083 32.8504 155.178 32.9757 155.371 33.0458C155.565 33.121 155.823 33.1711 156.145 33.2062L156.508 33.2313L156.701 33.2062C157.118 33.1912 157.421 33.1511 157.609 33.0959C157.793 33.0408 157.912 32.9656 157.961 32.8754C158.011 32.7852 158.026 32.6349 158.011 32.4244C158.041 31.8381 158.061 30.084 158.061 27.1523C158.061 24.2206 158.071 22.4515 158.085 21.8802C158.085 21.2437 158.071 20.8077 158.036 20.5622C157.986 20.3016 157.882 20.1061 157.723 19.9758L157.718 19.9808Z" fill="white"/>
<path d="M146.028 32.1338C146.122 32.2491 146.296 32.3042 146.534 32.3042C147.293 32.3042 147.824 32.2792 148.127 32.229C148.32 32.1789 148.489 32.1138 148.633 32.0336C148.777 31.9534 148.841 31.8532 148.826 31.7429C148.568 30.8459 148.271 29.5379 147.933 27.8139C147.626 26.3806 147.412 25.4635 147.283 25.0576C147.219 24.812 147.115 24.6667 146.971 24.6166C146.698 24.6316 146.395 24.6867 146.063 24.7769C145.73 24.8672 145.413 24.9624 145.11 25.0576L145.859 23.0831C146.003 22.7423 146.127 22.4366 146.231 22.166C146.336 21.8953 146.39 21.6899 146.39 21.5445C146.39 21.4944 146.375 21.4243 146.341 21.324C146.291 21.2438 145.968 21.1837 145.373 21.1536C144.778 21.1185 144.326 21.1035 144.018 21.1035C143.825 21.1035 143.656 21.1737 143.512 21.309C143.368 21.4493 143.244 21.6247 143.15 21.8452C143.051 22.0657 142.986 22.206 142.957 22.2712C142.728 22.7924 142.078 24.5414 141.002 27.5182C140.391 29.3073 139.965 30.485 139.721 31.0564C139.528 31.347 139.434 31.5926 139.434 31.788C139.434 32.0336 139.577 32.1639 139.87 32.1789C140.644 32.2441 141.265 32.2742 141.731 32.2742C142.004 32.2742 142.237 32.2591 142.431 32.224L144.703 26.1752C144.862 26.8267 145.05 27.7838 145.259 29.0568C145.452 30.1793 145.606 30.9461 145.715 31.352C145.829 31.758 145.934 32.0186 146.028 32.1338Z" fill="white"/>
<path d="M157.138 38.4032L148.826 38.328L148.945 34.8851C148.945 34.2687 148.921 33.8026 148.871 33.4969C148.821 33.2865 148.717 33.1311 148.558 33.0359C148.157 33.0359 147.611 33.1361 146.926 33.3416C146.241 33.5471 145.765 33.7275 145.487 33.8929C145.437 35.0154 145.413 35.8123 145.413 36.2833C145.413 37.1604 145.442 38.1627 145.507 39.2852C145.522 39.4957 145.596 39.636 145.725 39.7012C145.854 39.7663 146.087 39.8215 146.425 39.8716H148.018C149.129 39.8716 150.811 39.8565 153.064 39.8215L156.979 39.7964C157.172 39.4556 157.311 39.0898 157.391 38.6989C157.405 38.6187 157.391 38.5485 157.341 38.4934C157.291 38.4383 157.222 38.4082 157.123 38.4082L157.138 38.4032Z" fill="white"/>
<path d="M147.983 26.7163C147.998 26.7513 148.018 26.7964 148.042 26.8616C148.067 26.9267 148.112 26.9718 148.176 26.9969C148.241 27.022 148.42 27.042 148.707 27.057L150.712 27.032L150.637 31.7628C150.623 31.9433 150.613 32.1938 150.613 32.5196C150.613 32.715 150.633 32.8654 150.672 32.9706C150.712 33.0759 150.811 33.131 150.975 33.131C151.749 33.131 152.369 33.116 152.836 33.0809C153.302 33.0508 153.585 32.9656 153.679 32.8353C153.664 32.5096 153.654 31.9232 153.654 31.0813L153.679 27.6885C153.709 25.9345 153.729 24.6415 153.729 23.8096C153.729 22.3963 153.694 21.3189 153.629 20.5872C153.615 20.507 153.575 20.4068 153.52 20.2965C153.466 20.1813 153.396 20.086 153.317 20.0059C152.915 20.0059 152.434 20.081 151.878 20.2364C151.322 20.3917 150.9 20.5521 150.608 20.7125C150.672 21.3489 150.702 22.9727 150.702 25.5937H148.067C147.859 25.5937 147.755 25.6989 147.755 25.9094L147.779 26.0297C147.794 26.2602 147.859 26.4857 147.973 26.7112L147.983 26.7163Z" fill="white"/>
<path d="M176.876 28.1545C176.876 25.9445 176.901 23.8346 176.95 21.835C176.95 21.1986 176.926 20.7626 176.876 20.517C176.826 20.2414 176.747 20.0459 176.633 19.9307C175.973 19.9307 175.085 20.2213 173.978 20.8077C173.978 22.4665 173.963 24.8069 173.929 27.8338H171.487C171.215 28.0142 170.981 28.355 170.788 28.8561C170.773 29.0366 170.798 29.1518 170.872 29.212C170.947 29.2671 171.076 29.2972 171.269 29.2972H173.929C173.929 30.991 173.939 32.7 173.953 34.4339C173.968 36.1679 174.018 37.7165 174.097 39.0796C174.112 39.2751 174.202 39.4054 174.365 39.4705C174.524 39.5357 174.782 39.5908 175.139 39.6409C175.383 39.6559 175.591 39.6559 175.77 39.6409C176.171 39.6058 176.459 39.5657 176.628 39.5056C176.797 39.4505 176.906 39.3703 176.955 39.2751C177.005 39.1748 177.02 39.0295 177.005 38.834C176.926 34.5242 176.886 30.961 176.886 28.1495L176.876 28.1545Z" fill="white"/>
<path d="M171.219 34.6945L165.35 34.8148L165.374 29.7632C167.483 29.7632 168.853 29.7482 169.483 29.7131C169.582 29.5678 169.652 29.2721 169.701 28.8361C169.716 28.6908 169.711 28.5905 169.691 28.5454C169.671 28.5003 169.592 28.4552 169.463 28.4252C169.284 28.4101 168.997 28.4051 168.595 28.4151C168.193 28.4252 167.731 28.4252 167.215 28.4252L165.379 28.4502L165.404 23.8396V23.2282C166.932 23.148 168.317 23.108 169.557 23.108C169.865 23.108 170.173 23.0628 170.485 22.9726C170.798 22.8824 170.961 22.7822 170.981 22.6669V22.1057C170.932 22.0255 170.718 21.9353 170.341 21.835C169.964 21.7348 169.647 21.6897 169.389 21.6897L162.65 21.9102C162.02 21.9252 161.583 21.9954 161.335 22.1157C161.087 22.236 160.904 22.4364 160.79 22.712C160.755 22.7622 160.74 22.8273 160.74 22.9075C160.74 23.1681 161.142 23.2984 161.946 23.2984C161.961 24.1103 161.971 25.4383 161.971 27.2775V31.4721C161.971 33.5569 161.995 34.9802 162.045 35.7419C162.06 35.9524 162.139 36.0928 162.288 36.1579C162.437 36.2231 162.66 36.2732 162.963 36.3032H163.737C164.625 36.3032 165.885 36.2732 167.528 36.208C169.106 36.1429 170.292 36.1078 171.081 36.1078C171.195 35.9123 171.269 35.7419 171.309 35.5966C171.348 35.4513 171.393 35.2458 171.443 34.9852C171.473 34.7898 171.403 34.6945 171.224 34.6945H171.219Z" fill="white"/>
</g>
<defs>
<clipPath id="clip0_25_1179">
<rect width="177" height="61" fill="white"/>
</clipPath>
</defs>
</svg>
